<mxfile host="app.diagrams.net" modified="2021-09-27T15:34:27.575Z" agent="5.0 (Macintosh; Intel Mac OS X 10_15_7) AppleWebKit/605.1.15 (KHTML, like Gecko) Version/15.0 Safari/605.1.15" etag="tTpxB5sMHYNJzaHKnvcN" version="15.3.5" type="github">
  <diagram id="uXEJ10cEmiH_y56kA3Xg" name="Page-1">
    <mxGraphModel dx="1856" dy="642" grid="1" gridSize="10" guides="1" tooltips="1" connect="1" arrows="1" fold="1" page="1" pageScale="1" pageWidth="827" pageHeight="1169" math="0" shadow="0">
      <root>
        <mxCell id="0" />
        <mxCell id="1" parent="0" />
        <mxCell id="U9esFjEPz3OBlnraez3o-10" value="" style="shape=image;verticalLabelPosition=bottom;labelBackgroundColor=#ffffff;verticalAlign=top;aspect=fixed;imageAspect=0;image=data:image/png,iVBORw0KGgoAAAANSUhEUgAAA0IAAAA+CAYAAAAGVqtTAAABRmlDQ1BJQ0MgUHJvZmlsZQAAKJFjYGASSSwoyGFhYGDIzSspCnJ3UoiIjFJgf8rAySDBwA2EConJxQWOAQE+QCUMMBoVfLvGwAiiL+uCzBK8xOrz5v78F/NWW3BVFE1bgakeBXClpBYnA+k/QJyWXFBUwsDAmAJkK5eXFIDYHUC2SBHQUUD2HBA7HcLeAGInQdhHwGpCgpyB7BtAtkByRiLQDMYXQLZOEpJ4OhIbai8I8Li4+vgohBqZGlq4EHAu6aAktaIERDvnF1QWZaZnlCg4AkMpVcEzL1lPR8HIwMiQgQEU5hDVn4PAYckotg8hlr+EgcHiGwMD80SEWNIUBobtbQwMErcQYirzGBj4WxgYth0qSCxKhDuA8RtLcZqxEYTNY8/AwHr3///PGgwM7BMZGP5O/P//9+L///8uBpp/m4HhQCUAOAdg5rTactsAAABiZVhJZk1NACoAAAAIAAIBEgADAAAAAQABAACHaQAEAAAAAQAAACYAAAAAAAOShgAHAAAAEgAAAFCgAgAEAAAAAQAAA0KgAwAEAAAAAQAAAD4AAAAAQVNDSUkAAABTY3JlZW5zaG90JeMjBgAAAjxpVFh0WE1MOmNvbS5hZG9iZS54bXAAAAAAADx4OnhtcG1ldGEgeG1sbnM6eD0iYWRvYmU6bnM6bWV0YS8iIHg6eG1wdGs9IlhNUCBDb3JlIDYuMC4wIj4KICAgPHJkZjpSREYgeG1sbnM6cmRmPSJodHRwOi8vd3d3LnczLm9yZy8xOTk5LzAyLzIyLXJkZi1zeW50YXgtbnMjIj4KICAgICAgPHJkZjpEZXNjcmlwdGlvbiByZGY6YWJvdXQ9IiIKICAgICAgICAgICAgeG1sbnM6ZXhpZj0iaHR0cDovL25zLmFkb2JlLmNvbS9leGlmLzEuMC8iCiAgICAgICAgICAgIHhtbG5zOnRpZmY9Imh0dHA6Ly9ucy5hZG9iZS5jb20vdGlmZi8xLjAvIj4KICAgICAgICAgPGV4aWY6UGl4ZWxZRGltZW5zaW9uPjcwPC9leGlmOlBpeGVsWURpbWVuc2lvbj4KICAgICAgICAgPGV4aWY6VXNlckNvbW1lbnQ+U2NyZWVuc2hvdDwvZXhpZjpVc2VyQ29tbWVudD4KICAgICAgICAgPGV4aWY6UGl4ZWxYRGltZW5zaW9uPjgzNDwvZXhpZjpQaXhlbFhEaW1lbnNpb24+CiAgICAgICAgIDx0aWZmOk9yaWVudGF0aW9uPjE8L3RpZmY6T3JpZW50YXRpb24+CiAgICAgIDwvcmRmOkRlc2NyaXB0aW9uPgogICA8L3JkZjpSREY+CjwveDp4bXBtZXRhPgoN0pRsAABAAElEQVR4Aeydd7QuSVnu++TJgZkhS84oAgYUdImY0SWGP4xXryJ6zXHpNQFyl4prYVwGQERUzDlfRDFnYAQEEwICkmGYYWbOzIn3+T3P+1ZXf3ufA6h36R/W2V9X1RueN1R1dXX3t/c5cI8P+5KzZ5eUA6rO6h8lbRPc9+HAAdNXwtySplTPSvEAKA1qkd0+RIQjlCp92ujXT+SMIdsH8Uo1FWU0wD+fbxHvIz6Cg421zJ02MNNWyXO2htpo7CtqTy1CnM6W5SDFYtttnIZpevd3+U0/fz3SNsQad/WgWT2Oq05snjUDvei0XOtt68JtcetsJTpyJyAmSuAsI74Rbhh77Y5kcLAIwzf3ozo1J6z9qY5JcAd22QpykNSYeuoMTlKClUl+HWXoZnKoMsdnYNERavrcbp2JXaRV2gZCrWbOyxKc2EU5R7Ur2Bb2ik/p38s0JVjr3I9Y5/AA54HgsTCn0hSb5RCBYJho2oGDB8UKn4q54PkQbvFaPbLW5oDRGtWOtnn03Va9t4hjm+KUYvRaQ8TihzIdW6TiAXt3joc1BGN+p9vetRvB2YQUvUpo3GStDLmPhhUI5APTnDV/o1v88sPy1gnS2dmRkIqBp7K7h884laDAesygeF6UgU1uWr7UqHJuIbXGNnyT/FhBpsAjjaEzyxk+Z/I5q5r14wDTBDZAEy69uezjjvSSS+TMH0IGC7VoyM5xo7BLiwvOSDskjyiJzPpKZGroAefYulCbXtRIlR/m0h4DAmUtzoMOZ5Ur8tMfY8ZI+QRFQMZtcPykxMfEG0pwhFmxIGWaxY0ktdIr3FUfP0BNNqzb+jDw08Tiq4/uVj8yeHPQ64gGHi30dwp+Uawx2DSk7Z/ENLdn2cQleasQW/lSavH37HLQky9E+9rxmyRE2z67nDl9Zjl96pR9wiZOlJb9cT+E2JTEyDcg+hSUY+r4jCSb5OOAfMGHkjR+ckieCrZtmFKmyxOHWvRUKyX2ULYXQ2ru2RYc+ZCKmrxJ64y8OhNWZpg0a4yctyjYf6sXBmTbdvzoQKli4LTPdI4856ElC/FEdslPxbly8a6LWnRsYjbSMqtka1iqYjCtRewrWCvOrv3G2FtHZ1K1AwMahQ1zL0IrOF4pRnc9r50bfBw4ktR+3eOnPPWcRm/dx4cP2jQ0OKM1mbGN3z126CY/uEuLTzxRA6LpkfGxycajY/sCjG+awxJj/T98+thtghcVHzk0DBcGF9sTQHquW6ZIrs727tFMJo4asyBtyYDTOcviGgIBcjGOyyQk9vvkIymcnMkc6EayDbfbQSGcq9jFUoudXckC6Vh22bv9drd8SVdHN0g2DZW2qZpMhnpmaqMDkxp5tSNkdXcmjPAgvBsF+Bm01OcJvDHaY7Exo47pck4+opsP2Cq7ssM9B5Whm4XQt08bRdtYl+CAMA/GmA9cLdp2CfwgDf9EGv6VZjlg2QGxaazz3GRg7Z9dsoUeoqjFLiJEYHFLraloWiK0s2JWPXIRqdVa0PccEQuQjMlXnNHHZB2o9xQzRW1m6+8R3CEg1zo7rNUJZFqoDYk2JalhYjaj2rSOxTxy0gSfC9UX3Qs/F+a6QHMZcg49J9Cij7rwkdfHfJHMVbfd3LMp9xyMuiMpzA4e2ERGSwXsKt0yv+kmhuN7rXjXKqpLqyrbhNuN0i92iadXrAlDlBK0erWdfjsFsIqDF8FCfcYxFhWOGlltS6ZysuqGj2aZCItex23K3oNNmhzNFp/p3bZEzx0JQi+tAKczGYlmxrbO/+LO1wSvcb64Mj8Q4CAJKR7gOnf69HJWH645Pqc6/q5Lo71x2MDsFM/DonVMMTV6zldcyFxF3PNVNT47P5N4R9UxOik69DzHZk4XoVZyHXv5sakMAmIbkDb7WumNcwZW0mMpX6O98cyN47hhXA4GhRzFOWOAM7AMrf6hQ6JhKMXrMjeedfMZjxjv8gsMnHBI3VaNX3ZO8/HM6czniJWvQmCc8amw0D6Ioj7kCVdzXeDGzuTljHxDpjdqAHdMqUEJYregx51gV2ixio0i9A1kutK2nexjnCcxsvHTnkeIuErp8TUBv03MzSixnz0c/9sSfvmHdRIQNqMQwCJOENpniMgElJ7j9Z4P/4onC6Lr/LCcVNjY6kN3zYvVjRdr9NWqTsdYUtuqcDFgTB+xH4z5XCWGIZ7FKibsK36iowOmyQEbA3jGEiugOG7f7X+10atpU3GBlQLuUC0am/v5OoIJzBNFuxGKjnFM3DWu8OJYsIMwibZ6kAVayOrjTwfl7nkOsdm4reaZ2xBiNn8FchRYqtglzI8A4BzQTO01ZuSxlO2b5ogXFo2B53GUAdh85jhg4ccBzzcHrA7i8oEGljFufxHkBzpkePqwTlUbUeaBVh6x6JkAkYblmO+HtfKrI2LJrI2AF7z3NG4boKSsE8Uc15PFBjmU8RY1qjqtBXt2OvItQK0Pm7ycDfhemOWfMxc8SaZB/U4K19kUGh1rmvgTio3Z10mi9LrCP7iRxYGtrNBkzPbapmIZN4zSdPzAma9DD1jLw3MhD2nF/7ZZ7HelAn4NPjYLFGimxt6CUqip6DehvFd/3MAWyxpOxkwQlbE8UKvYhgVtikmYIzcxn3mA+pAreeOQnzX/4+QERyeWP+jVHCaoORWY6EUXVD5rkYHhK3grh1YuXxExT8qzyNweOW7B2n5uEYkw0Sei9lVIOAag40AmvOFvGWuxgTvs4Vx71FrdH9KGj9gs3/zWo0Z31q92n7MTN94SEedAMLzI0eZn0FhED5UxSfvCvl7Y/IQJFNGxnYU24mC7dOW6Os417cqnmp2KjIsILSqpSK7RDRZK5TO2Ws6SjgEvRB0Km6btozenzZBNEDxZTCYLBDhhQ/O8rVyBPGKGp49LlAPSxKZJwCQwLSwEQHHCVUaqHFAVOqKtZ16UowdvMA260YMZ8RULKfXGsc0YB2ExA1kd9dZWdPsCB45vaoCr4qWmzLWe1wFdLBsXW+T10CE2j2prb33mzCmlYpuDUrBD0ZWR9q8NmpHO1DQB/1yw4ah7LANC6rFBDG6XeCp8KcRiRlzH/Fisc2FJJ7Ew4SoZGUfw0VaRoG8Q4GEbGniwS2RL4LwximV97kqULREFfczmbYIboYvocxWBCdfdiZaMRARyJyJjYajNgTd5yHjd6HhLb/XSBOvZNAd/omuGPLdt+2nLZbpyRcydINj6pIps23ePg/AjToM261QXcsGHfvRjbPWHDTkeWYaNpCSzB0pUmqDW9Fss85CgUOfBYG4C6obI1HIMMZfCx4jVdVCcfhMifkv7xuisNv3iRQ09fcgJUgiqiDLaocQXt4ducywd+dI3Ai5ERF1kakZgS9fwvClgn4Bl/nFDFg3yEx/TT47rnMYGeLbFAbztB+oZJT7xIyuKdWSFy5H+cUzBhj5UFgudo0PlUPhltDRLxyAop1hH62+jm0qYlCKuvotW+INpwXMchGv8ZtvnRFOpq2r1p0VjM73h20aM7ItQtPYxb1zIW2nhgJrxI2MHgRbjZikOnDQgWhAdc6AUnWr0NAeRpoQWAxCDAc5BrevJU9FYMwRbVm3rMCdcvGjRGC53RNREws6+BePi4vR+QvHQmpw0KRHs3qCJbBkCzwoSPYB7NGBtDIlAQQQXmt/gsLtdcqMyvfXppF2UwsxJOGgo7ymr3tjYgQWk8l8ZEoUBR1kRbAD7RBazGZZDNoJg7JaZkgGdKaW6Q1oxwC2mq7V/TpVVOa2OYVLoibURnfhNd5iib1hKTkfbcsmHM5dbBSlYBkUGvDQ87prIzpNwgqs6DdN9YjH/rVcy4rf0sOm51wiyLYPoxosClLD1fNK2L1M8OKmPTVm2PUUGZh/VVEnewEZpwoEzTIZXCq6QpVi/2u7PbQgTxmi2Mvx925LEpKroqEMDmgeQxnqRncdjCEpYUtahsjq6+vhft+nXJzx0WLz4pBgJ+VFoo0dl7uC4EafVXOdBBBpD5+PajJ8c/ZPzvuVbjL7bOhjedst26W10ZsUwchy+zUTCEMNO7c7KzD9Ll26JlT9rjOSx5/0WvXpOWOOVgyN/9LEtPnIAuYq8H+gYpvIe60OusrMx6+wYFiz08C92SKLDGQ7PcUsWJqIqaaqDX/kRFRltwaG5tx6HRljd1bSS/do8r88ze7Ok54ba8XjDflobIjab8m3ME2wQw3CgfXEUoePCuUqfTOXT8Fp0MDkmJ4VXcoGz1eTL54Wl7Y8TMmyiW3kMjPPYOQq+RIwtzMqnGvaBep2DACBYjqhKfiRLXszJOXrgTF/H6iao84iO/rGGeph9kCKl/WMdOVg+N7H50jen9azTsuI13fLJY1wWJlgdl+T24sgzzQck+y2H5cmB8XTBOEObmZJ8g505kJo3Ls4ZGIi2PQO0f9KttTI5C719Z4NPcuCZb4wCwKBL8BOhpNiZ26bopZsEI4xPqduuN6Yigj8OOCyCK+QrR/QpVJ4feh5lNsL+SW0hH4iv5q8F2tdVrmO0MaEFG+Uy1mA7XeRHfOjZxwj1OpJxxX3Zw74/mXNuS9z7cdUZu9KXnHVQQQsy9sZ1jTaf6FmGA6XXMDUjk/PAeMgjAo+WALghsBn7KJ47SO2USTcI8OPDqA1sgB3l83et1iIEZS+xIo7h2s4QSmO4mUbjWAWJIjhWn/fgcE5DaeUIJVei2T7KyA6I+AJ14x9yXYRTCiDHd47DG1G3Nrm59TnsG2mdy0q+JWqcaR/uiRBQUaoM2MZsxqhjmonp4jq0UPqUVU8/wYfDp0DdVLsxoPtHOEUjIaCigTglCNVT5ZwhocmJ3Cit0ITR30hZz4o2UgMDnPT43YV3qVjMGvFzUrNXo59GYMWRCnw0kz3ikQyEpo38FDGscVxdnPhTcwg6SOUSXl2UN2LqtA+rDv7NRT3pDpdgqZN+tJF3zGVvi4BsrHbd6I5jcsg4jL9p0Vt18COasbXDx6eRRAIDBBl0fIgyzcIxeeRFqKK3PWNJdmCi7UQGxsfGmVnQbCONWg7jAXhlLygZm1YhH/hgEeoI8eY3bXDBKHpXLdf9Td3CG6EQnUfo7qpBDmm3rOoscHw1gk3jIdXaADFGiA25dfRjuxgSQE8Hk00VLTUkch7ZDFf8agw/8bOUDhnI2I3mGKvIr7olGjKymIDYtooTyxzxIzKOy/xwPV5ipleKm15xtgLOqbESmG0MWLvqwxjLnndDhsYkl3Ups3HEN/yScexXfKjanZgw0GgWjz5otitAIsxYwEG7a3pGK365JYnzFvsSPcsJzt7bsC2LYMoKg45+vPoTGx+fFIjAA8QA1U8F1/w0AFAhNvQTG7nh36YU7dAh6IclwkVTn3rIYnmrtJ4924tTuIIbBRe8XJim3uDZubiYSNvdokkwP8ay2noAddhYG1tawpevxDecWtshlY6EexQ6P9YXe+QenLgtIuszWLXBAAy+NhnUjA9vy51D2mO82ltkSwfSsI8B0UehDa29C6PjEUqJr3IQjAA+BdsDH7u4mK959Y1Q48VPxXCQmyFt6jzXhBFA62oB9PoX0wYTvWyVPXDwOl+5E17b95ziBkgfivT8j7TFiPUMB3TJeENPu3CFLOY8D7E2+WBc7CMnOjmY2AkkeMBSBlsN2uum1u57DJOfVXYTd9nBE2uoccY3lCb40DY4nR2oKwlGCaOTH2mf1TcEeLPGTbPjJ4dcDF1SGw4Z4lQh+zRbikZGZKUlRtnAb9+wQKFAS4ujMch7Gmag0/TI2kBoIpjmWj6VZeRLK1iyMcyggMBkxySfYyUXUIlY0H68K4dhA2u42SexbRFXPOug42P54wolLPlgscxvzT+r6vou37I3YMxiMfmufkgbd21WmEDQJjzy2vrYC09HGirAhKZaD6x8o92cYkaUB1r61ps7xIhQ8Lg5MpJsHR5+uTF6DSnFKG05ZvsQY9VXZzw1LL1wyvAQHo1EgxBnBEbQczMWkTQZGZOi68WXVIiWhRjdFiqtoQhdJaNlGwVWdAOb7RMToDS6kpzBAYmOj02jIzoj2CS6wIjepFYdfXHYRCIX1ElWiM7ayOOqZdM+QMNmFsKN/VVoT2uz+R6wNUYDd1XrZXZQJh3TcN40JBNJRMovC0Gp+ORvFOhHZpAsa1GLMMH9qpo81KfNke5kjhOwFNm4THJFVRWP4p6EB4jocS00GIUFTjxcxVe8batUdrAiM3gA49ukah6HIq6uTEQ1LVdi3baE53QB9pwFzMzJEE1oTtouk/5UupsT0QzU/DRYNzKHDh5eDh0+rFfO+vSNkHWiyLEvjCGHjgPEV6GurZVAelwyhlmotnMqfOIwXdB+StiKxcZWl8wTeswhD0HSQMc4LVlarQr2YOEYhKZUrao4JUlPxVXN91BsePzO48hC40Uo2oUx9IDb0jZ9NgPAVE7sosbOa0tjdA1TcbcdX8in3Jlj5mqPsZgLMhnfLT2p2cZjzyexQJV96PaFc5amD/atwpGARpm49PENN20Hi2wNh2sdTNcxrO5ixJgxErF8tVJtFTR9xD5B6HNIc/uANsG8FTrbN0QRtHT8hoBvIa3HRmxG5Mo967QsEpaug0/hqIeBOx0XdUO6IUHnD7T2owWoC4gKVTtacvRRQyaN9MhBhN2Hb7bnU/GK44pNpxpIBR9qAdZNpL++Vr4YnvYwI9mGLbJxnQi3QNYYtJB7q42hHFnAer4Ov7ThyRziq7bwC1cC/WAnb7oUi3MkAdVZV9p2KVVsGfPEbB2wzHNDZmrO2YnYPMvvM1EENea6YaWpdZS3Br6BtEBELQyGiivjiap8eJ6TJ/9wwIP0o4GhtMyDb8ch6sZIRdI+9LhQt2+wWi83UpFn4+nbN2DanG1bI0LxROYROKtrhnJfvtqp8gtb/qca3y0CDUcK02aUH/taJqjOnMIPNrmSr3wgZEmEpTiwccMkE1HHmo9+K+gbLN5qSsc3V0gbInowjEa9FiPYPnrQ8T18p1raHpNBL8eCSohV1MiP+/g97KlpOcv2GIpbe51E1jjU9qoIyutqZNDcKD+dP2Iox9sljwiTjDJXLde4xXNIRCt6z5fWAyK4hY4947YynY64ZBrfDMmVjrnmqQWtP5JjTJ1v8XlwM6YcGNDKC/TWohuh0YlXo0sDUoun7l7ENomzk+K7Dt/akNzd6rbEqCt2+4mOA0VnPWErdfsMLCgCYDdsMwVGu3FpCjPsShJqFNtqP02wXlStgRCMkY/0JnDxuSEbEptEo104LVJdnpaFG4IRyaG7TevIgU87lhtM5IqhKmPqoAJWcLrO05IgrPlZsTpWtMGbfYG2La0XG9iLftm0sNrNpmFA4phk3OSAv7EQfvput97glymyW+H4pEBdsiUWMPglQ2NzkkeijtKaFIcvHSZSjTPLQac/yeWkKz8aCLkhmKbhGtP86nAiu1+wGgzmsMe4NiDxRfIbkNYCf8qDyH5yYl90XpkHMUZcVdtGsNEffc+WJz2H9AvP1AfrF595AkTuUUu85QqmoVUoKxVbMeKFSu31tGnj6KGIj8hTGLHRGRRIGXP4c9n2mrP6I0qJtGRs9qjBb06002uljhZey+Efn/aUDT480Uqkz0GkXJoFv2GK5dh0CGITU880q4lgbF242mavd3hqN1DdzMM9XQRswE9e07JboUIoy547cTh5a6xV0urTwVlRTuMCceUfBGj0Gt9tOa3pp7zIzjQW3qhgGiXR2ciQPHchxy1Dzd5YylgSmor9Qqn1XOtizpaKKSids3qiTX65kc3bDca2PMYHcKvQwm6/QSH/tWuNhGVDw+e1iGbFleK41A2mmC1fivFA/Br3jR/tE8r2wQ2De5NPyziFUpj9BsCCIyn0nKlBsavlDzo9t5F0W3jU9n1yPb7gM5zVpw6OfLXrI74a1DzEM2Klam0Ti32a9BsHn2JJx/zEvm8+Mn6rOx4xVHDSOep10/GYtPWR/WJSkaMRpDs25dJBAA/5RxdHgM8aSzufYtpuxFBEg4/mHURilVHsOI+s09BVBt9cEbDhqiRUSd1lyFYfYtb0yPpNFtjyLSI66qbEt5TcEPFWBiXOC/ynbbtq8QMzxLU2Q3TxjEss9bEoc4l/E93YnZ+oer+nRxayEVkHVbaoeq6kbXP2DKfss3viVmy2Jz36CFjKNa6DwlFUmvRl17/UX22oFLNpYMQTQ39WABz6JtJ2R7KSdlzwqkAqOi+/aNZBNbHSp8ZD5sAQWsVMQy62evQmATiRKjxkMOUxg0uexINmEdVrg7d8UPXhB5/xR/NA08LFX40jNp0FWDoNQ3zi7d8hNG4Cio4J0fc5p2bnKlSbg+gGQ+WHsfYyEsNf+4QAMUBt3bRsFhl1x43QZB+p0lBt/eJSqe/0mdR0C2X+QKpFyyCeCIWH7gharqFGP+rpi0SxDbdgRmAMphWNToxpWEZyAe35Vwix4WEGSv4NF9HLj2XbVjoVn7zZv6y62XwgZQP2KTYyuaIvHKCqMo32mHkw1R85Sh8Fo6qbHNCjXYti9RhxNOCSBmsXBPn0TVcRMzGEVgpBLOXSiVHRLCRiC8MYCkzuyLRaEURcCxHYdzAGXvh4Bpz1xUsNj5Z7xU+bTqGZb10wyydXNUdavzRbRGRshupxotlCaroAVJhujDZcCcdQ2kWCuIqlxbGiQkpFlMnW1Jx0JeULkGe4VXjK0hdLP8FEmjgx4I8OY2IH1XOJnPaixuI1Ll54pf7I+eSJcA/ozQ9/sIBfNuybn0M8mdMHu5hsDdpdmkafYXGhISFftDeaxYdnevVVrf32s+ytoKuwWm2qx3XDnDs1N+xzxRG2nQiOmYOqRnhQVr9aqC1Hfnv+Fk8V9JUHEPrEpgvDKlYgm8o+eSmVikVLHrc2ZTDJQp11UuwlZiNr5QaaOHYL7f1KGbTvykR19xuSPfqNa2G4OQftZeHEJTIcQs/3YcguSXfMc9KYc6QhWqQypW5jmbM92EnxN8qoJHe9wc/NkNY6nTtnxBshVJY61+B0Ljjn+mZoNmBTfbB8cmHHPB81duaLUqzNaMhAvLPzgpa8mj0W2HJ7JQRaWsh5s5KG2oVcUBjkq0cH9XWw5KTHuB2KSwbEvZUcErjQq7a0/RCdtUdtqwy9ti9efoqPAPkzOTQjhy5yzWmNiQsUroDi84MdRNVxVcdImUw2Cl9UNvXcFBFQFEvDcFaIbiEAGuCuRBAP9Ry8N+m2McVOvrlui0NweIy9whrRMi49Ns6bRMHflNYbypGo3IdavIrJ6h40O1OItCfgWRayIGqUxrjaZ7+l4fq/jqHjQlo6Dg99YzcChJ1SLkIlX/xDhW+C9LdBhoZ8Iy/5IxnRILe4zIY7Aypb5MB2yTXtYJpUYMTgVKgfGbhYj6oxStbEblMbP9jt7xTGKolpKbN+2A0soUsHuo9q2agODSKC81dJ7HiQ78TmRkF4yELv0qAW9kHmWqLPl0m4REyRb84F4qI3cmu33y3bKOBbj/PIRI0G+xU80w/jyI0QbxOJ9cxZvlpfqGUfOuEW1bVTZUeERJwIqZiOsOzystG0OpIrsxLA0KEb/6nBolZR7Ruh7pc/g5kGVD4MpuodoVnXQYjghAw5JNQpQQcy80Q3q8RiU7SSTyJs3gdsADcWEga4hVuZGnLbEX80zShwy8/tADScTZHUGIxNidRUGTYiF10frRM5o0vAOQGH4n6a3U9vZURey2QlIJqi0qhxCE1wI1amYOKxmHpRZ2KIYgXiSfGNEU3WsiImZwBqonjDXJ5YvyzCqyagYQ1CobeN9qjMQ+apwBDvSIs06BNMDYisitiOpkUPlVDVQjY/pjb6eGokKiUzIlqtPQVVMpF0x4fV0korGaAajobj8CH+eJAkI5J9qpisbT02cyUPlPiHDh/LTUf1AfLiIXkW/YbosQPLxtLw0bYmX9Zxw0ctTMOkJNXBFUg+T/mrbXXz5Sc4uvDxhLAND1lb6l7pF45ZHGBTsKE21/YeG8jNpj2XdW6v+AYYfiO9zunozmjVnkhu6rA7n9AdCy3taTyM24mesBxFJxG6/arIqm1dWJJrtw3hPo7M8i3d1uPlihsEqLQap7XiYnHVyZqNjZaY68aK2xHRUWTWBoc1VIWpgcucS9uYyHb8dgiUCddNhJATy0ZMVBNwjuqb7kOrz45u23FCqrWJDNIaY9lx5RyXesxGbm63W4Ub6T4f8VHCFSNUAOy1vjLnjZopHMr/9SRDeJScU9FNvMDWOYdu+eTZ0P4NbTXKB0g9O5I/TAuXG0K7gM+liI5/QNU/2mxW1PB8VN2i1gCHDUvFYFwbRAobs2OizV3kbGtthN1CkV/3EUVvdtRRFs5E3DWjvt8mQ5evlMSPfzD1KVp8djcHYGvdo8l1wTFJ56z+Mlr0rRWcwgPRPFBEsz01PX4xV3QLcFjz6lDIvuR9lD61/cRfi8M0N/5xE8DGMeOEkG0iPutZJ8gBarkGLcwy0ZU9GKZHI2znPs54R8HmVRyseFxsP9b8NJ4c6pN/gUDO8qVnFSBLzjgWxTaSWAjfDR+IJW8T0O8HcHhCDnwjIDx13O+vFtoP5jjz2N9GjC+IojscwyS62I55W82MilxH0Q+6VzH4AA4JwKzvAw671PlluKbFJpqIQU0YomjNtqrhWYOxUQKNXzphqGNsHQyEbH0sgH1m24xTXgvb1PVQUviwGsl8i7U1RpQwWGVqQgEZ37ktsn1s+bzTf0+gBLPGJEWlqA7/2F/4Borf0zQNpOx1+i1S2/Vccn7Axmh8MiLq+te+pOZoBg2XluU3QqPfnD11wJzdkbCmSdi0dm2iN6MG1j429iRmZ7vfNXKNy+I+9bdxSFv+m+2KQxR9NI2WGk6qCdtclJ3EhzckvlGqUQmGOsTFGonDh02AMGWGjUijiT9uPASywYl4HSUnZjxNG0Zw3LAy/R7oXJsKkfF0vI0DvXBoVgp89wOn/Vad6CUgQMRgMXlZ5LI4mOWbJoWW9SvoXrCtoD5lfkoRz2IY78T1vwhWz4DCtGFxLN6x4Jn+wbSANesQrzcUy0GBpyL/idPQdXFx277EFOarRWMqZqhPMtLueIIRrSggw08knA8L2XvzLOc5LQY/8rU3dGmHzg3IwYNH6rVvFhPHDp7jKv0YFnbZLPVEO/kGH16JWU1PZYavjZMsxQKPWuxf/E/qh4GKEkBo+liXY4xAGakwN/SeS1re9thHp31fW9iPp+EbTIcutqRO+VLklm2uycSTRrurviglNMuufhRg4SfViSU2q63KrR4LzZeWAqFmoE113rGHOL9LTLvHB72abhEQN5tTcQrUWRltKVDcr1w5GFvI9GCM2rcM5lCJ1AAQTGFgjpwZy+J2FDPDV3XM1iG1juhxSEPVQFyxLAxQrfEFH5B0WoQeaF36XEktasdWCoTp/KjP+uUyg01tVD0HMNx0A6SfTXei4UzMvCUk8X1x350pAYnVBhS0n6AHM4Y6ImRWH70mO1+r2+a2uGWD62N9NXBIG07C/pHfYG0+2WD799UaUzrOJXOWdiUCGrkF0nUaMdU+V29UxuSwzn+rtdbgi9D2t82SbAXVAEg2o7Cy7bPi9+8kkF/8HUVt/0Q51wAQ1Gd8yQn8BCytoK/9AKGthdidMVdo2PesZqaPeeyZF3adJM4/CNh1MWqaRUKmQMd4tWzspucj6hKPTrVly3mQH8kD+Ve0w+akr2aPcee2uclJewJ25SwRtZgR6NiVCmeKKnLSNc2+srGvhwfDJ3mh4IiPQ+IMir+ix/nVnloocqyFbIxtXeKlrkak88BQeZDIWf6ioW4o/TU+/HAcbthHtRxjY1li+AcXdEvVEQUVYhMrEi2jmjgioSOt/hRR3VWnaMKy5/JfIXtcc35Cj21wPK4aoDFlC8koLVaQtiLa2L1hg77rwoWgQuXc47s+9gUjtTQnImSJhdI1bUDjE0C+KcaG73hE1zh1DNjxnIWPQSxhk5YhYx9abrKxhN0qdkG6hdOxQBjnAqLC8r7Kam1HHfRmPAnC1f8jlJDAf/cLwaDlg40UYaUVKDHb+eKsap2Ewmgn6U5OeUJbt+UCPImE0L5Uj8qTZ6ZLyX5bubdlSHLSqcygOC1CkrzjFByTyid13OqusdBnASD9as/Y8FUMEW7xLak2diMDo5s6V1xYDOCvNtVaFSLTR+hDL/o5QuRTXnigig9Zk5msBLZ9UJzi0Rt0pxGFKsqFe4K1f3V0hQ3K7KsAK3vOKW3/noIXdYRFQU+fbEQKI1YCZVJkMuY2IjtGkwwnqaLhPwoBMYOn1mrbjMJMGy4iOpbJjh0ypDVqbJcsmP3/4ECT31SszH6ypR4+5iYImtp8HG/j1MU3mihXq3Irw9hOz0ZMsD9AFB+zSCGcJ9jRajqaKwVFxLMQUdM1MQ33IILvYvlqq/JTLeKnbXLaLUFUTr1qbzKLAd3TCGzTdBRAniCTm+DFbhsvZaoh4I4Z4ATL3fS2BPvScqAScUNlYqGLBFw8DMC4wIjiYpfqHKk29D5HGqFtmGdM2ROxz65BFw1fIq8c0ijblokbcQvCXAhAxXNebfem8y3rmQRKzsLTAQ3r6JCWji1rHM59JOx45dDCQSmWO5Lv2LIpazmEtiVybGwnexaJnZb2udMd6o7NOUpYbnLuCytkclgCjm5uxyfHqkQPMbBhEavPTa0fnKfsEHiqaRyLIOkSu7LV+UJmNlU6kW676nmA1VcZ56n0WtWMcSiqxaPj3Incc8nXHHJPMNT8o9lvGUzWQSVxIJFCC9Q8oVb+3KloKy6TLB77pVqUIPURtFVeVPsza0xtxn5IFzYq/tfxqRbLv6voGyAeHGW9BKnnNzKsqcmFzl36NiULNMyn7Ya6XcMLHbEI01AxAX/Y1HvFqvlx2jhgELdj9yGd7lNbwo0GY2xaGF3OAcUT49Kwkro9l5HZ6pgneW9E8T1a7/y4mrUsehvSRLDL9pM5UfZFxJce03Fu2oHKhW9oLBJwj798lMyaexnu619Feoa3dO2M8YKBDuPtmyXbxnUJgkcTnv1i7HU+6c/hH8Km/PCbIoj+4dBxqLY/zKOig6W2MXHWBfmyw/pSdkPZL+8SnkqjUMMRWrj2Q/0d3yIl6VJsNzJf5JvpxRx2ClNk4DRRjYstblB6rnU91OrOx1E0pPSdF0dauGo3G8eget5hSvhk8IwcG3MBvj7MacerTiOM8W951xp37Z/yu484QBz2vtrrODqGyp3ttT42vVaXp8hgd8KRiP3RV+MAL0Go5ywE5XDxyc4kNLVRxwKVPm41JATzsBKu/GwpYdLusukMeLi2WQhmWDRU97tZku1EJzsWhlAA1e3owym+EjVKJw17kPVBJ/jpz15b04dGyKRbB9EABdYyDd592Fgp2fKnYU1H1ISR1eTSKi0ZN7FtC0X2Wx70p+Q7Bh9qNiALFn60LzGoiRSbQAxf6JhvEGHHmPPfJMtEyp4Ne40ngn+Ya3xyMuDnOFmEgRq4sZBjZrgBzfeC2t45TsVlUS5cOk3Vrmlp+UIpD6kSNy2j1hjQz9i45UOspk+uuuCjlfGffwjqLcuBA3wjVf5AgFeLv/m0C2BGaszAI7FyGbHWiZx6YkdilisaJIlEp+aP/YBYWDgzFpEVo7WMFIdjUiIFK9x0mBtDE8dtE6t8qmhQRg+R0cEP6avv+cbgqWNsy8RvUIbK+Ts2aLxJZ7JuX4PF2GN4BhyRiDjFNWklA7DLT0uCMflIfjdzJFogznGsbezSS909MKFhyfNowhxjKAn45ytwWyLY1RuM9FvGWBJEVpe6ahR365wlIkg+5asxG6nriE3CalZcJkoO0cJez69kzNOivEGceC1aah0cEM6VCTV+jDFl8tvDrn5JeO41hmtwzVfNWOaSH5zCyhwtbHMwIMwxRuljl9YsuaezYRpm5xAB+2tYbc+rtj3Z1BUoPg/7MRrNOg47ODVhqumx68TgIDhUOQgs/dkxu+DoEh/+xXxxXKUdPeUyZu0cm+zkV0QziKEE2GXJtvmMQX2CE3/XXBcuqlYPnldZmhAbw7AWaqhSmWjks3z3VwzZVOqfcTBhX9cabMPaTsFK3+Nl9CkHiMJzfulw/VNVGNZGfNxU5CbMdMu5BYQ3vh70kHaOsR4iBld2N5O/znkcgwed2n8kwOTCanpDtc+qfb5IyTfgE5/rXh54VJxkEXmukWWLc4kZPJdAI0Eh9yqaE9k4q2dC6I4D2/o9V9Kam4BpE8346cOfWM5NLcoI6qPic5kmRk0zeJuwd3R6TUgDgtVd4QkQQRyslVa2rKF2ck+vQKjJywprNLjG1aH35mhFrXXT9fkED4UkkJ6aq9zo79AsKL0a6UBwlJxpYKpU5ZZSamxi9/UOTH60p9CoWz5+ropG08nFDVRkYgMPsSMk5Yb9dG62Tp/OXwyE0Cn0f+DqPRS62CFvFaOBCklsWvzj57A+mzJfpGH02mMhAGUx4ceAHSgvcNQ6IPNR1zS6doJeZOyb6LBKSu3wTNr30ECB66NFpbpOoCQt6I2JbqylastCKf9NqTaDnOw6VVbNHycoPMnxLxfCYFmyzeGUyM4VshpA8CzjvniWRYITXZmRPPnuOOD4R/KkJpXa5ysRlYQtGatHbKjZD3qyKSc8UagtAH6MZdKtPve4GxnheXJYOQjGNRZQYFE1D3w+KR4psbBuEQ76pM9Xs+avZ0ln4KhNQvCVo58Gqi1aKBBBMZdO+j45Yn/VRmb1iR44poxD+mPBs8asI1utY4Cy7QU6NzfJs+Lhb+7YMfTbW+HT9UUudC4UFCwbTaLmWBBOxxc6x6CV74i4rDa48PC0DKD4k9p/fYcbH3LW4q1uq6NTjVWI+TpcKi5+Jra0AHVrVSvJJpTPEsq06lg6NsQLa9LcUorhSvYEzXh1iluWusme0+rkNf2qb29aocjQ8HYPr0MgcdIZXeupJyfy9gRCxgyM+Nd9C6OukvGmDdb8R1Hoh6thtDAGM25i7S2YFzW4abeQx7p4scNRxVW1Q1mPjHX13ML2yt3Mg8yJWb4EpTDr0DEKoUgEfH8EQEozhpIAUISebx67VpCOm8jrX4kWMXY939OUASx0iY+2I9LgqOG5aAId5LGCEeru5Slnr9uhIs6aX0KoszvYp+znl2mt2zq2X52YlxvJP9tx21JcFqsDlSUIzj86lI45wllHSMLOCzJlR03KRiYkU2OshQdjNOAUhGmGhzgz7I8I/qkaGhsa16iiwKeOolN8jeLORN2sGyaO8ef3C3pcyIPVwHRbSm4byn4GNT7Txvfd/YHnn81oA+2NWUcYbY7xWy3wa10V2Xgt7Z6ctlYfVNtf9guKn3xl/jc9I8Gx52vbopZ0YMW379g3HXJbVp0fQAe1iZbyQAUOv4nDcRd92AcbjKa7jwIoxOaZGd2yZH8k1+PraxJ91KzjxnqIQ61tX8DPzYvyoOtZ/oiPdmNqk2/KyKP0D+rhI1THIN18VS43RGfOnFoOnJb98f/NWL30peWfYBp3OhC2cesYzfnoVcq+EyGhrPN0AOGYeTmUftslp1WcCt+JY9i9ZqUeeSxyqXJzaRu2Iz3/RN+ZL7keR2htFqmOoj2xZtQF1TgSVDM8jXv54t/xYVzo9zkd0fhkVxlPlIN1Bjn7kLUVkYynG27nxnrViczELyzoXZoUK6Kirn/11bgOJeJzD4UEryNJHAjlWFuoVJEw5AleB5dOaIAqlRMOFIKmRJseAnjSIHAjtap2qzARcZG2WJY2q1BmKLUb23VDST/9IoyAI53Nbmsiq7vSsml7Q95AWQZY1EAVz7IacNd1WLe70Vk9I4bKp2SdE+vYoA4EZ4arwIGtVstZpDo9EJpk1mXB8OTEc9qB01GTWDq+wIgDnHgODZlIW97IHPiA33XE0jfbDIQyNsZBRY32wbV8g+c2Nw3pR1y+qNFI6VQPBopUkLrQd6mG5TaUiS/F1sV+cVJlHOyXCOTY42HmKtktTuPEIAFj0UeP+IeRQA+MLR053B12xN56JS8CqzFSAwP2bII1FRxQdKHQkzEvRsiWyvpULotV/BVSzdtGi9v4OMegnibICMnCWFLpcEzLIZfFmG6y52s07H0siEve3CmbrVA1Nm1nh+5uhYfALANSl26bLzD62xuiSOQYFEu14riiSbGNBMxd/AvqxNeKwGrAOPZaggofYAPDWFnZ47tSZ5m0pVI6tPYpwAi08bFBcb8Mts0GyuhFsnnubQdZ4lm5GnErox4EEzEYpMhyhKEcFD11ZjqoOUcqe8gkmdIqQMYLSHXbRxrh1nwfPMkhKh3LIoR+qDqimB6k4Jm5oUej5SSlyYksR89TtZob7XANjT3OJwm0jO0AAwpz3VjpezNn3irvdEs58ivdeBz0SZsjaHV0/pRbfSV4vFWxTYsYj9zE+/JizG0jRrDxS6QttE38AsP0hknP48wY+9JTkLRpdjyuYynybJ6qHxVy2DrlkpNLm9y29Bq951Xl1hq0+wNBbc8FG+hHkpb0eUortoPZ7XaEtTQSccx83ADXdtYYwEopFCrWTuSaY5oBYrfGpd+mtFxiiFLHY3siGb0ThYhjpJERpuWY57qjnF2Db1dW/0rFkBt7YiQc4qmOfQ89lguH80Z52/odpeG7IaQFRuUAZ3yt6WzJEDz2KaeptRfDGusSX8GyNWpuRMV27siFWvrGnXRV65cz+c9eT2uunTlzSJ/cHLVdCVVmBJAfFIWRQgxm0FUzNqtjTWRtWXWdGwMHSmEZs2R7PhgbLJX2w3V0HElD20YBm1YMi+KVGuBBhkaTgaLvbhr4Q+zDtGXbS6OUuoGHLr1QdKRhfDVdC0+YvOUZX/e0QnBB9ThKJg5pTNTkj3UxpuTYkur6wYPo46vDkphL5kOusYlDsUu/MlDhVjzCa9zpq3EYFSPVjO24El2TK3vqdqugJduUrsvYoAcjKUVmTW5zut64QseQhNRlbbUO1oaE2E5MRWAZJr8XzUZfk7KNsfiVkFSrbLg5xguefbQ/0PXxT9rxo8gGg57Cxsh5kHo2R6FzjFTJti/Frunhk9x5Z9ZZZ8UGwPnwSaBW1cx0/6Outq0JAjMeFdZ4xySCIX0wBQ4Fi2QlOgRQojAoXadngn1wH9sS4WJSfvTTobBxAAFVig3ZeLDWJiKMDMVnnhvurodo9nGINyCCE366ImSHo0oZsVJrkr1GKxfLiYhx1Cc/aetojSQLEy4jHx4HSEHuN3L0TSEBIwNWdd/f43dX6IiopIpxtNuGv1etRb+L6cLNzRCK6KCtGeX/O6Uxiiy63ReZOkX69RSOfuiDWTIlqc1gnUX2ESlHV2CJVLZbHfNquyu/OD8oHO1md6ir9BQgirns9uHNNNpBh+NZPUnA0Uc/8TcStDelADo3A9N6YSb+tAe/LJkaVtmbJCrgwS6dtj/Tm+Z5w9xtQtXJEZ7E/5ajS9vrlZTQM0+2G2PkvXXbLwQ6cNfRiAUD+dAW1bEd5qA9Ud2ysR/vBiQedAeb6tq0D+6u88beCtcuxA/sQaDX+KY1EMZblPbqzNDJOm4E0eSvZLxmW5aDeMYIUJqxaRb2KwbzBMDmzutLnElQ7NSC5nrNDPDSDHxXZbbp5Yf9K0H85E5qnEyGjb788TqAqE+8dazR6jJ8MNZMx3y4QwY9i1Tsavt3eFY1jEWkaINVLifSUMnZuh6WpnM3UCYs6ZgnfOoRAP3qgEeHsaAN2TbUKiFT4YPQiq2vPk0+/fAEH1d22bZQ5dN2yha6LSzrNgOWPTGqeinQVrpo2PZGX1RjRm6dh+CUb7CmN5GOE9qkZ2kx8ME+gb92Jj/jMDJuWRgwCgD+sa6aLvabztCBrA74la3ElmP8Su6abt2xqIsHBEff4HCOS1LXlVOnRFWs/Oet+jtA9Xaoboi0O2uTzAnOLn4HmTtz/uNkNuhsrvm61WneDGmzPeab8fGGAH20Bx4He9PBFbk87Pio8Tma1SJ8OwSdkiNcCr35Whe7ovqnZMl/5YUcUExyM30T1Zy8DvhgxKIffJvGYT3/3TKU5GptyMrUY4Q86xc1JXg9ShWIK7jJoWry6BsdFMuenGdkPDriMxabIv5mXCSJZs7jllSfXGge+GyUO74pVj1ctMXqi4hPh9EpNxpp1Cj65IKS+AaPAWgSQLRxqDdlzUMBrrFEjD1oKdFDaNZo/kyTRn7qZKXTfNC6Da76zIjdYn3ddnhhQGctPZFCKZ4rKwlxpaVV/RVikkF61qv8iOYJQxJUdhHwuPUSDxItW9KTUvsEui9kAgg7sScF4rFgcMJDcJ2pbBuiRRpNtVXl+6TQ9VqS/1Vd//qklJDlrFS+eDKGau75D+DiR/mIsP0qOn3hhi1k+esi8WSxBIyBx11wphRNtEIxFYF91YF5K0x3zUVniI1mUVRhXzKq8DA5j0K+7tT64JZND3L0YqflC7Vix5g5o8ZCCjU+o9/i6ZVAV31CrUKFCVZ8ykIAIv2yiX63az4Gsn8BnKcu8cG+lG6UPOMiXsfJvG04N1HckeMtX7ICw6cwXfnQ56AXSTJdYsBkBZk11zhWNBBTZhr6XeZ207qedZqWAShOV6rTnNCKB4XYM0/ogJSZG5H5CE+lAh3LWaghCzBWGtEWJMHoFo/cMQCN03TV2aStZ45IKXJj6Ei3veo3BrEpGUn747eDqEY2tuGwkcA2P/RVfLPrhg5BGseShRtknvJJCtUczBmxOCbAG71j4YSsHEyTL5RgT6NgzPx+QOEMvHiIf57VcbRdMxUXPCcrB5mnkrbPEomybWwO9r2gqm2+5VGu4vkyOmrIxzwdc5uYOupKp4WH2fajIDoEusOsiDzsMI4cDz0xtCdev4aBojZTWLl+zDkfHthyRIs29GZ5i4HUDbfax5z3+MzbHUkpL9nwOyMjFhDxpT8DzvMgdDEH2eNlkzrgF/HDteFyVFW1Rk2j81SKWC7fxWzMEc3aGFgAVIA9byJVOPhskcjV7LSdjo+6ICSK59JBDRWUfQIxtipmcai+hIIZzy2zurltSW1TrCsbzEX7GW2LqQ8pRqnAj6XVhlrViU51C1eORw+xIVAdwL1vAZd2eVZGvc9EVB/2Jv79HjqcS1Ta49lt1idaIq7nq2Tsvy/q3ijbf2Sg66/M5Q8q5O0Q+R343jsCh0b71I25lhNDgrwgrY/04Mw13S7FdbflVp5aJqou40Zumog+d1osABYevqq3FgTKInNI+sRv7MKc/TFGHwowFfmUQumgH7RY4itvymj+eALx+5NznEnkc5zrAqV4uhe1XCP5K4+9F7SfksVXWfK4+i9jpG83hGNdVcwEyzgwkcPxMb7od4QUggjlBBIqAUrLicDgIJYsDls6h26Dt6IFHULTDGVhT+9Sbm4DIgCtUbuGj13p5syBoDLrl0109WMUq2cAkPaCtF5pIKWQvBmq9JpdQi3MmLlQ2aoaIyvOTwms1LUVpcJqs4nLGJ3f4U81Rh/VKYf8giFP+gvXYp5kkqLmawbUmpIeoXZt4I3GWHMMpr/nnjmOQju9q+xvgY5YOhoIIx/FxQP+WaZMulrNSymdeSbNmLSZR4M2TkKIQTcvsz9uI66yel4GVTXNbo2OEGJEWiXr1tR2s/rdVk0TmNxwMe/UqQIvuCK2TjN7zMuex6tkDLEBqjjF8PkgOT9JiQG1yZGPGMRq+mAMHOhGzhG6ZEPh+kpLfZPXGndbhja9uj64l7QJeytUvPjijg6RZZbgH7VavpiByaWMgo6K/UhzHO1ceE0r6e6ido6yKykxxxxxsueCP9XscyFdjkLHgJvkLv+i52Mdygvhb/0pYKTEKMRgtn0jiAPfc3pIiYNNdLeo9IyMvSQZKRfTaZXQuKh77Feclps9tmWJOB+qPWZWgZiPLy4xZSeyh5Gm8K3fvPYhEURd7R13p9hsSFrtWYXgnIamWbOi446lK4LaYHv9t1TwPPeQQ16HnDfFM7b0OzbLgYdwdCZ3jAqjJNQMTjGMbdU1hKGTBpsucBMHuQhC4TSc6Rx26QXsXMNTnx/6pqECXR9+zG6dcgUtZDBehWZGz40mqy4ZIEdBJviDpEbf4DTNm9Hyv8OAl02nb7GzAebhHf+8b+VAG7t82jA2+YEWjht9QEwsS+vgswbRUg+9OujIIY8xbQqs1jchtJaJ1SFm3TzxbuHUBWP7Pi+9AS1b2JSA3eJQ4+XYsT25NzpF6znt+NsZTBoz55TttQNxp462aLsmlKGeJ/4bYEWzpP3CV2Wx/LcdlIeTqxN2sf0kke3DJNu24DHXKN7jVTsq6lgdYnJlLPX8sK9unDoQfOP3iJBlDTKu8dkLocSZH3ecaxEzrVT7q3LaQPMgmE22rkV+kCKNflM0+yyYUfA1qGkZG0p1m2fbHCjwdtd2KQwVCyHj2ZCemcgIxDgizDo2aOAKvkGqHvr06fBRbkyHBmiwM690tH3Iadu65M3PQo9ixWOnBp7f5nhdWK/txkOPN+DCpPjrb3anbpY0FuTa5z92x8VHQlnArIerqPnlTa0/9KGmTrs76/jxO0JVKp3jAoci/6fRkUM8wa0SK93bOgHVfJKyf2lnnDRL5bud2KnuRjHTlPw0Ytct1oioF698cOieFCLwYzoyNMRVtYu2H2UvLUl1EsE3cBlYZ1DM2Fb72vVeq+ZwI0OcQEFgE4ho3wVbraIc+UAkGyH/pZX5zzWDIZ1sjpVJ6xgkuegE2BjCVSISJ9xGQA3H2UL71ZLZxC/PRDqlxeikYgEqSLT4rJXndSg5SjESaJT9ZMWYQ79oXUU5Yxu9CdSAwhWcTyo1nALRyxsJbzple8LYaeJZFy7Vs81g9gwuqQFfmnsCb7Twc74Haca2n4iQYI8rphWbFgw/OambXuLseUqwqMQkmLHR6O6aHLoEnB/kTB6CNTajH6ig45nmo3mzXIQ5thz4Lqs56zocHTJG0nAMSJZmxRFdKUvWC58DEDVGWtp9m2g7XQdgVbAixNgBptedI/q9Ki6QMm2+A+x8QhqlwdFWmc8H8MUmN0iVhMV2e0U8D1naA4BG20VzMNxi9HqKhLvy6bs0xIalDj+GhlH9UtlWPNlFhNyphbgLtvPZcWLwaaDrjXe1oVHsdzvftcFtLUIeh7r5YYD803zWRm4s9Kdzhz7AUe3xLSBVqx48et4YadA8p80WIrU+VJWZOGth0bXe+YmyNlEIx07tEoyB7mhItzCFZ8QCxmWv36aXjo0jprzqH6I+x0sGqeRcIqwH3ETUeoAwdud1wV74MACcd/uMDTtRNSJg4IM+wcJHWvDAppESGnzU4EHhg+dqER8Nl0hB8B9uGXbZtK5+tKgRBBXLABUMVUwMPWQhbZyzSjyPz+V7BNkPqgTUtkoeKqXF0iOOyNofM+m7oTo8y7oZXucRMZ+nzB/Hj+Sk0ziQLFINxKwD2YyqO5Zkx29Pyj9UuuDdOO/24RdqxHf4xOsbjTGmhbqRw8+UjD1tecrvqdpfep1LfJZHisfYVnNi3PLvixjOmqZ1fjM/mOfRtQ3Jtk1qvxVCS/7hoj/Jenc8PbRSyL/44q9y4pM+YHBOn2Zf5r7O8dOnTLMzyI2iduXBsah7WvuguN81vYyPhzdMybgRDhjYMq3xqZGadXnjEb3VBfiStbhawjH2jhgCJtXBN3lIynam45rX+FbrmHMdeGz6q/VaZyj95p0ceGxsIYbxAxs8JCY2y8NPM94Qt8WDZ7uyVyKV25bJ2h8oR2xMADolB6thfR3wIUUy7vP/CI1SqRUHscMy/IYTp5cTr70pJxtEtMbFHef1wVc7DaIbA3FPozFIGMFaV/Utums/kqAF4p/oitf2gEYfvU2Z5cVAhsITtZq09psnFx21nwyqP6BGI7rjWDrGA1P9xiH/EWq0CwAAQABJREFU3W5cfG0/B8bcAE/93Ri0MCzccPKxvoROywByRzRELU8Nv2tjgS+iJyF8BKpYDpr6TUanPy0Xp0avnIwgsVFm3FD2Pw6fxNbf7r/4Tpcud7jgguWmk6d9Y73BaZ92kDh57EOZhu2TYciPRmnORot0zooTP3MclBVp22v1ld+U/ev4PPH2ydeKtbZWjSnYlTgcXCPM4oLjtokdMUH0xkdzyIsMfc1zv9XxGAahcahd7IoPTRFeuHnqupJpbcVLj0o6CXnCqhzszc2E2fNLyPatIVV7zBGVTDyqoysdqCXnJ02KtbhxH3+GiBrgGjvrzLoYYiAlNAxn83xE/t906szyitfdEIHD0uWcp+C3m1WPOMLeHHd59mOWAGg4WAzRekmsyLK+lvJGfBeQvp0r3IKs8aje+Suv0S0ivF0TsNqE19OSbdPU2LNN6uK3TnXXqhjNt3zpDZzGkFDn1OOgtRI9t92IIE2u5pSTkmH8oA3HCx/SpoiOnn23Qrhti+uKP/CQEy5jpaah4fH99ny/I0TH0EIiuUgfCJvwYZBHvjp/CNm+RLDjUgZblW7nyv7LHteWpqHTthqLfuM1j7FHrzHsA7oSYKy1rju2PhfApTSmfTWh7JmLwGrLPolkbDnQviPa/o66acSCQBX7221846M+Mr3HcAdiMRrTaqIRg6/jiqtp6NivInXbtssBbFGaN7dnmoXqUKruoQ6Gc6gaHnqt2/y2g5L1C4SxQYbSeq5DGrlwTsAvvWKPasYfxPM02maLdNpwpnkdk21LENNjLpViP+BtvT1rCHgNWBhJwJQHgPUBu8ebdsthyhA61EOJTa7gk5ejh5aLDusjXa5VqGimuXADc0p+XF/n+x2OHlyOa292Ql+fu/m0pIi/40SmfaYGW/pXSefKYwf1UBjIcVUb7fVrZfiO9ZbhukcbGp8uc3uVpoUcR2y7p0Oua9JR29TBE0179qBx5BqOFjdBklRO+ytpY69RC12+mYCh6OShS2OVTeXAaMJyCxdMOJT/08mWwKgCL04Ca11uKRIJJBGFiafQ+Ec7KadlNdfRLgpGS9CVyJgCidzw8Z/Ptv3SQYQ3NNwEve81Fy8f/OH395oPezaTfmkOgFB9jF8roWWgOxthXXzRBcspXTRuvOn4clSb/gS1qq2tBmyglbP6VTKudCgwp24AR2ZFUWvtzKCGtS5ZbMzR3oqmF+z9ONActqEwOMl6UcAP6O1M+OM/5TTAONDYp7Rus8Ds9rnrFpk8spr7HBAYHXAm3JHXRoGfwi/Q//zzrl1e/objy71vc9HytptPLsc0ucbaadxZT0YMbYZBbFbESM2ybeXfUgd1q7kXey9lqzF6GreWBdlt0brddcuUxFBPIz7lKEopodO0vqGg7oVpYErIT35rMQeToZm/jlKQAzHLVLwZNlBsi56PJmwP4BYlIsMLU3dpu/1xhyJp44wDcTVynkStArONlkl2ejGb6wp++G0NHNHHSCIgTxlH+uLTv0B5fPmNtywferdrlsc96qHLLbee0Dqor1hwwS0NdNdmUEw7x2GvBJTEsM6gdd44T8ZquQZ2BN2pumktu9dabO2o7XR7jsWtxpTQ1BwqNpEVsmkR03HIj4ZEdnyaXUWs2VaZ9Rq9awnujh2sog0p9Ynnkosv1PidXG655VY9V+IPpbahltyvlv3Jj3iDZtm2LXDg8JkxS8bS3a5zdk3Mjo66E2UXccNUh6m8LUUwA1srtz3rOUY/7LW1StMSFwALtVYksp4oC5v4Z+2sKm3TnGFmNMpG+7HampE6CLthxtoacvLTvngjXVZ1Pe15bErPC8mG3jgVx4hloE6N9g1S663sPRQnfpdacTe53DTc5NtmCtlECbbMarZaAmxMUzYdUdoQzJKdSdbZQzB1/wP52uWUzQ1DQv6JMBJcm/DB549bUGe8FbjXZQmM4rRugxWPmMBVFQHTumnE9stuto3YRp89ypvfev1y/Y3H/Se4j+iGiIeHfHjAdkgPBLgZOqz6wguOLm+7/iatIfVVLQwj52CJRfg1D90U/Yj2O6948/HlRW+5ZbnLhYd0A9VXXacIhFwO7Z+7K8Pxzj4X30rRS0rIAz+R9TF3EOMS0iicU31GOwtRxQuDzzc++d2dnEvOr3Uzjjh55qz+ohv/TI9T7UO+pcF9oOIlJ8bHi9ixTunFX2fRPvggsV5JxnyQYGW77E6pWjWrFVuONSZj2eTyISJ2qd4ITRSZYvBOvOa4boIesDz5G//nHhP/kYTnPe93l4e9/8OWiy+5VLDtx3+khf/G+s/MwGMedZ/l4Q9/xPJPcuLOd7hyee3rr+N/0fEfuvzP9Ov/l+3LjyzL8ZPLcuL/l4H/IrhXHF2WGxTkuKn9d/p15QXL8vZbzrew/TsNvJvqd7qd1qM3vmN5+80PXD79Cb+w3Pe+93s3Ef5b/L9CBm695ZblT//0T5ZHPvKR+tPx0xcg/is4998+/HcG/jsD/+kZuPWW48vrX//65bWvfe3y1re+dTmsB/IH6//d4VsRd73LXZcL+FbLzTcvr3jFPy9HjhzRjdFhPRjLNy5qn70nDm4CuLF6/VtvWp72G3+//Nkbbl4eeMnh5bheDeUPl+h6xx2T972lrpuGvCGqzboqNv998xIpEc3OzUPffMDzzUNjqnZT9PVmJVIcAdG9SHh+eKA3QPpGSf4CbG5wEIhu28yNJ34f0Jsx328NmURiHwAu4+TBN4h2Wm2xZAnrjhwsHrBYDqw4t+/REYMnud3ffR0K2FYBnewGERqxcIyfjg3X9K/+WIKY4iaJkqIo3v5l5XFHZiGgt4VEIXPqFH/zOzz6fnoKTxPmkL+yEzkk0KG88Y1vXr7t25+8fOu3fitUYZxaDvPUjmDbZWTdhzQMqLPTHzwY0kd0191dmnQKEaVNGXFvqO9mR/j8GUD/h1/tnyCg5enyrkM7+Odjn4uHnc4XcLbbidjyehwQ63hnGnRK89IDEuMpu7ymU3/gBz58+d3f/d3lwz/8w5ebbj243PGOd1pe97p/XY4cvWA5eVJ3DJtBWjEzcOlj6+yZk8tll12xXHzxRct119+w3HLzjTppj/gp/Sw72x5tYDr8Ju5D65DW1JUSjJVYCDMAJ1jm9vUn9Tc8VQ4f0ZtO4mtQ0bq5B8oaCOgjk0MO+q7f0M5TelxWNVoAU7rdddPMrEPLNq2RRJfjh3Runj55y/L2utM7fPTC5dSJk3owt9VrrUah3koAlzXizOmTy3W3ROPg4WNed1rWnpJbnS+3u901y0mtD29761s09kezPk2Cm7xhsJ3YyKSTBRWnJmbJ8/TyX3UTdI973HO59kUvXR796I9bnvOc/7vc61732lmfMLJTjCcgO07MegPKBZOvTewWyfa64HMIXftQjoyMdX8XYL8+8UzyO919NWS3L+qHtU53gcYaNZ/fPWbIZB5PtlrRdQz3fNywrLu/3oyPTmwHC3+wyYXaT5jpwKJwRe64FQ/XHHw/pg3MS/72pctLX/Z3y5d+6Zda1Oux4pzj8jywS2AKK8FZfntY7fich3lO2UlzVZuIakKn2Haam2PrdT0z96PN/H3b+ysRS/Lbbz23cj2OI2cjRyVX/ZbD9JDd14//YOLwZz/cbSwt0b7u9RP5LucamOb/22pQ2QxTsL/rS/ebb8F/x+HfhSc/NxnxeSfKuzLv5fN+tndpu33mIoVzeOZBI1/n4yMzl73jK+40X45dcOFy0cWX+GH8LbqWndDbf76lxPicvOWEvw3AW6FbRX+/93vY8upXv3r5l3/5F98csVf17w3NBqf2cb2JvsNVFy+P/Zj7Ljf/+j8sr7vh1uWaCw4vt5zSeeYUZn7ZRzXpndWblpTwkn3aPQolOCjsPUqlFpK+YZi1rI+qYMgpH274fPOjN14H9Tvm3pPCw1abc6MUZaZN+RsoJTbGqAwWgp1iJPGvxwFYjeDqqZj9e5WrzdV82wMsuu1/bsqgGwwmHxm0nOKgwf8TRZ9OvShTs2jIqBy69J4f9MSo0U0U/H7QddefWB7xnndYPuJDHgJj2HFnOpAALixoHtbdL4nkw42P2+JTI8fkzStS4Sl4aO/1Xu+1/NM//dPyx3/8x9o0f6Bl15uEOQWT0f/AZvuFTfzLJ3bbVydNviLbn9mFplHPssgQZ98E3nCDNvB6QsnTBXLSZdbvdvO6bnrXu/Tud70r1/TdGjluPol49ol8wHNeiGHHX+gtg9x+pUfvHve4x/KQhzxkedaP/uhy5W1usxw7dsHyjhuu180Cm15JVd72q8HmJujqa267XHfdW5cbb3yHNuNHl8svv2y5+aYb9YuNPOVVLnHhXDicieZNcoOWMXMC6rU2sv49G167o4cs8bvPXFY7GTMtPhpwufLKK5eD8o8n0Qd6U+mnLdmceUWQs55b5e/IXwaBM5eJg9PlR/lY8vZpV5cE4Jd1Uc0TFyHEVUjnoGFn/lhnosU/ZLRgnT6xXHzpFcud73RH27j5phuWQxpH5jlfJdBBn8TXOOhrFfBiF76goPBUTfPo2IUXL3e96130REi/LqinbgcO9oMQTEhPT54OHz2mOXPdcvz4zcuFF1++nLz1uPJ7JDE5v+BP9skFdskTqSQe2v69Dbr1x0mmOM1HRoU59ra3vmm57/3ut7xc69MLXvDC5aM/+qOXK6643OcL5/T5CxcnHg7lwY7XQsWyW/ea4yeQcXRfWOcQ3/QZ7Uly0CwyyTAWk87cbix8aL/w94Z3vMMPo4gRHjrkj3iQ47zv9uTCniZ66PO09Y1vfOPytre9bXnLW96ihxmX6Knq7tuZLX771KBgtY/2R76kboltzbxhbqHzAR/wActv//Zv2w+uNxSpE/6/uWCbHMzF/kAQj/bot9C56MVvna5b7d2pW3ePbYGEl1rHFVZ+kZBNfpmL0EuPsbvppps0dheH3vmf5iz4J/Twh+scT80350hhYde+jf7qxrla+8US2Z0cCzMx7tD3AW5Mf3Wn+UO/Q9+Or/OB3yU3+q1PPTAiN7Pmdt8E9TxnLrXvgWF+tR+lOWG3/zPm0J/k7GMA3+mkb/2ujS0sHOEcfvvb375ceOGFXhv2Ojd7stMujBmX9nz+dL9lei420rvCR7YxkX9XCzrsyW5729sud7zDHZaLLtLDPa2DN+taxBwm7quuutp7t6NHjy7X60EsexhugtjPbeb5jlH8OKnfj77q8guXe9zu4uXaV96gb4ycXS7S7yXpXkjnHPNEPzzcsc+Zc7QTQY6mhiULocXUIE6Wi+brIuJgZ9+Cvbz10e/p6PrLg00+h3W9I57kXddG+4UP6AK99YMedPupNXbjkjpRj90tc+sv+MylHjcsqWca5yZ0/w6waXA1b+yKPYMQebd0YBuGjI7GNBQ4PETjE/s+tl3VuhF6xBONG74BDivC6/TI9xHvVTdCJBJ46p0PJzITgRP7DW94w/KiF73IrxhPnDyxXKDJQmL/7u/+bmECcRL1kzpw0KV+3/d9X781+Nd//VffGEGj7No6X//fKn/dddct3/Zt3yb7z13+6I/+ePn93//95Xd+5/8uL3zhC5f3f//39+TA577450/75aKBPyS2eZ1k4qINn/hf97rXLT/wAz+wPPWpT11+8Rd/cXnxi1/sC8p7vMd7WMY3IpKnoMsHvTlebJhXg9n81u1+67T8Lr35+AfvH//xH5cnPOEJy/P/+q/19Z/76q3LZcsf/uEfLt/wDd+w3Oc+9/F4PulbvsUXtvtpU4j+X/7lX1rnTW960/I+7/M+e3xtG9SdB3Tvec97LM961rP0ZP92nk836UbmoH4nxE9AvIFmE733wwL15je/abn97W+/POpRj1pe9tKXeEMMzo3v0C+y8wRlH72mXazfETirtw5nzuhtTcldfPEFauqvvugvv2gmajwuUOyXahG8YDl96qQ+euXh78CGd+rkrWUHW6e1cB5R3Bp7yfLd4VOSv/LKy5fHPe7zlttceYXm/MuW29/2at24tX+nhX/Jcumll0hPX527le+BBYua7x1fcOyIFs1bvdnmzRdvSsCd5fZrH9Wieph3u5K/8jaXa5E+utxyXH/kpPAvuugYM0vzVG+oJhp/GhT/m/bO6tvf/raK58blfve51/KYT3iMx+A1r3nNcs3VVy436QaV38W47PJL5csh3QjebNwDspfxPa2b10uXyxQ//p3Qjcyll1ykp2zHl7vd9T2WT/+0T1veft3b/LbwqP5wyrGjWqCVJ/J+2WUXL8dvvmn54A/+4OXqq69eXvPqVy1X6Yb6+PEbNYZrDpHbL7/k9sgRvQHQDTU3qseU51t0Q3W+eJkbfD/8zW9+83L/+99/ufbaF+prEa9YPuqjPsrnLufXuc4t5r3AzWdtPKU5xkaSi+bx48f94SJ76623ar5dZDnk5/Nmt93ns5LpdYC1YrbP2oAMlnsN6XNv7kOjtGyvA/jym7/5m8sP//APL9/3vd+7vPAFL9AbsXss11xzjc9hLiLEwvrO2/u/+qu/Wh7wgAcsl1xyie3NvsznPW99P+/zPm/5wi/8Qn9F7Ru/8RuXxz72cz0O+NFxnlaOwH/Zy162fPu3f7vW4j9y3lmP8JV17s///M+XP/uzP/McuETzCDr/eWJjbGph4xN61B/0QR/k2I4dO6Z16J6Oadfnjb7GcL9++/z7z3ve8o+6QeYtIXIkngs2bXJKzjv/jdNPPXfpzd+MU82f5r2r9fqfQW7nE363T7v2+5rM9Zs5zjnCWCBPjii/8Ru/4bF/6EMfOubYjNOyXE+YH1w7mRsUfMdGyv7z93zxea7uMx6cM223bZwrxsbHZ2J66UtfujxPY8g1jg3gu6LvGKTf59gc/8BXnO0D8e7OsbbPw9/f+q3fWh74wAf461icdy95yUuWu9zlLl5fOM9+5Ed+xOcf5+Cuf/thk6f2qX1oey/RnuPpT3+a1tVjC/sOSvtMTZl1Ggcee57/86T/s/zKr/zK8ohHPMJ7BM7rfps948xt8Ij/X171Kl/3/1p7jLvf/e6eF8ynn/7pn7a/rDNgP+c5z/E6y9i86lWv1J7x2HIbrfNg/vIv/7L2Zb/jfRn8V75SfF1Hmk8ue46+QGsXtlgv7nTnOy2XX3a545t96zYMfGR9/vu//3u/7bn++uu9VjufmmPsXS/WtYobfD7QH/CA++tac6nHjjWGOZScrXllopBabir4ttRtr9TN0NUXLn/08rfrjwXo91B1neMPKGBfR8nWno+bFSnSHzcUDYbDDNf4XVoIKqZlzQKvP4wRNz6cz3wO6wHF4SNHxw2Qb4pkJ4VrA0AU9mWp1aSnAzRa7lmK+Cwlet+4IO3AYSBgVfZ16Fsakiy1LWgpGRfa4uXHEHjYY4Ze58f2kZtk1XRJzXqstbj+wYgPaTge8fnNUYtY004iKKd5utplaDYhdU90JsLTnva05Uu+5Es2Ap/7uZ+7vENPF3mV+Bu6yFI4qTQ0bjNYPYm+/uu/fvmKr/gK35XzNapO+H7JsvLOgSTtlkzMvfRZjo1JvpY3U9P+si/7Mm2ajo1JtSvR8Wci73LTZ/Pz1V/91cvP/MzPmPDe7/3ey6/+6q/6LdjP/uzPGpuTaL/S/lMziefSvNbtPjK78jOvMXoqv0k3GD/0Qz9kMjcrn6YNKa998e1zPudzvNn5qZ/6qYUPN3Qsyo9//OO9KH3GZ3yG/d8Pv+2Qm87T//gfn+WnKXxFhc0Ir5RZdBg7MHYLdBY6brjufe97L5/6qZ+qr9bd0W1uqHjKjD88Zd5Pv/F4kklhQTtx4oTH9KabtBFW4cklizr9pkFnkWPTD+5MhwcOv3hNmceem2oWaPyl3CpbFMaIDS+LaBc2eJwb4DO2fOWLDw8LeALVBR4L77kK/p84wVcMU972tuvcwEfiIoc333zcNJ56MR+x0bSOv9S3FeeU/OMc4Dxlo0Q5qv7ll3PDxQ2W3p7oyRKbHvJ1Y+WaPucWvsPHDmM9l57T5OeKK65wXuHzxoBcUvD1hhve4faHfuiHeg7ykOKtunBRwGB+Ya/loJNf8g02eVUAkH3Bo2Y8mAvEda75d1p/HYuLEQ9ymH9crNkkfv/3f7/1E9v2vASbMQWTGK699lrdAPypH7Bgs8ebGyFu6j7mYz5mYU140IMeNPxAd7d0rmZ626FmHs5zcZbbT3dXloc0rL+U93u/91u+Xw9uHqY3KawJ5Ij5xHn0zd/8zcuv//qvW+6zPuuz/FAD+7ulY8AON0JsjH/yJ3/SYrvy5JFxYm7yUKrlwL/Tne5kHopsDJ+l854HSTwU4Xv676x4/HUeMP9Y5//XF/wv552cn2v8zoXZ6xibpmcrlsd9/uMs2jj99dCOvXF6nHZz3vSW2+U3/V2pG4sbw7kwMswmfNqdBz0ObZffkfiVX/0Vb3p35blRZny6zFjgdJ9NNteFvglq+bbR/XenbuyOEd1uz7z9bHCd6z1Ejx/1L/3SL/ka1GsYePvpz37O/LZrX7KJco5nmVmXdtunzaadte2INqWsE8xr1mtuhHjzzBuYb/qmb/INPA9iZl30KficzWLWi9mnuY0sa/cTnvBE3bjf29+8sa7ojLNztM/8QM9FZljbeSjU8bEeUHoc3Nk5tA2uZ6yZzJ8HP/jBvtEj/z+qb4jwgPhRj3rU8vznP3/5uZ/7Oa83rNtcQ3nQwjnLA1pubNDhxrX5rE3wyQ9rwg/+4A+aj4+s7fy+z0d8xEcsy53O7Wefq6zNd9DbIPY4xNn7UoaW8/uVr3jlcqHeFD3kwQ+xDOs6D/Af+chH2ndiZK3xvmoal+RHiVF+b9UfILvfXa9Yvvwj77b879961XI/3eUc1UPDk7rOyGXlsvcTQlGnPzC8mS+a0zzaGvv82Abx9AebMMnHQT3Ug06baxqlMZlbfOsC3w/p2xj+top80Y+dgl4/qcMQdM4tusYSjt+w2h8O+fAAwW917LNBjXOGv+Sn0mNgv23VAIQdDEtNclHKWyvF1/Msb4riqxCmol6YAvGPeSYhLkOH/XWS1sJwF26G7EkTtjXKfVJ8z/d8j98isMFnQnDH/vM///PLM5/5TCvxluXqq67yybx78WLy9KTjSeAXfMEXePPLkycGqC8uW+trDz9IIBsLFo6P+7iP84mFRCd4lV5bzWMjzYnFk6xHP/rRflrChZiTgo0jhUWEJzgsBujxhoILKYvNP//zP/ukJRds/HhCCBYXXp5gc3HhJuiTP/mTvRhwAWcjx5N0sIidp6vIw8MOcfPkhYWSgtwrXvGK5eUvf7n7d7/73b0xY+Hk7Qybswc+8IHWQwBf/uEf/sE3Cryx4esMPVkMwKHGeh4Pvj7CjRA3HxSeZN/1rnddnvGMZ3gzwxMc8sKTGW5cP+zDPsxy7+yAP71Z+OIv/mLnmyfDd7vb3bz4M3a7hdyi04vZR37kR/rmhJjZlH7VV32VbyjJHXOInPHpQs56brD48oSNxZFcsKF7z/d8T4/nq/S0isJXZogVnRdpUX2txodCLoiZOQ0mtsBhDHpcGHcWbTbfPIVizBlPLnDU+MwcYzMIFjbxh9I3J3e+85093oz/Iz/kQ5ZLdCPGBpz5hQzzZLfgCxeXziNvVHljQT75qimFeJir8Lhh5AaGGxIuIuSLucpFbc4desSG31wgenwYA84B4iIHXdCFjh184SLOuFC4oeSGjyf+D3/4wz3Hsc/TN3JCwUdsdQGf+QydNwSsBRT8ZPy4GPI2EAwuWhRscGFi48zNKBdG5PGzn4ByznHjgeyf/MmfWK/z786ew7ogMi48ueTizU3bd3zHd3hse17PqvhN/rDzYz/2Y8tzn/tc52SW6TZPL7/yK79yedB7P8gkLjq9cWscbHA+sw7115N4kMB89YMlXdhYH/gwrsggT47II+sG84d8X6V1mDHh6TNzlnPpb//2b30TxNx59k8+W2v11csb3vgGv7HCqd5U8TCEmyDOidtceZtB71jwdy7dZ2P3IZrTf/EXf+FxaTxkO0bavC1n7WUdJFbmN4VxZuyIi8KmiTnJXOA8fmfF56DefDL3n/KdT1m+6Iu+aPm+7/s+52+/8TsXnjcEYjJ3mOf8kR9Kr1Xkn5zjJ/OF9YBNXK/jrAs8FLzggmPK+308Dpw7fR0lRh5CMXe4xrDGdA5s6ByHziGx9PWIec3YEjOFc451hzkJj+sU85jC+cZDJWxT2OQdOXpEb28vc46gkUPOp56f3AwSC/OQ+cQ6xHlHLPjdNxjEgl/Ithx5Yr3jfHpnhfMXeW4QWIt6ncIOaw45JRbyxOaZ+LHHHAWfWLv0fGQtR5a3lJTOH+tjnytcU9HvsUOO8SEP+AEGhU2483jAXcfJWkvc5IH50KXtMzfw8+u+7uvMgn6/+99vuUFfueJ6zvnC3OFBCfYoxMtaRy6Ij/yRky487HmZfMJfbDLW7MXIDWsiOODN+dBC43JADc4nsNEhx+SP+cM44h+4XLvIOWsHawlfdycXnb/2Zbc+dPiQ88TNNDbYczHn2B/1PGFuQP8WffuEc4a9Bg9QPuETPsF9/CHPT3ziE43FnooH7Y95zGPc56H14x73uOUZP/KM5bm/81zfIOFfrzV9ju361n3iIxZsEFuPFTmizfw6eeKkr8nkgHUUTM4r4mK8XbQEdtvniujJDzj6Joi+Jvfge121fMuHn14e/5xXLw+4SG9phMPvIGHLMDrwwgd9+yFF7bYNAAa3rhTatmFF6AHAvj+60fI/4ftGiJ4NFLZ+dyY3KeydeJsIhtYjx4wBbMQH7KRv0zAkzCdxg8O84Xpkm9AHDhjRq0ostbgTsX5TrZKDWYrZMDrsFulxQ4dm54Oa/zNri4lcYggWQAYNIm7oc/gsjkt5dSUMRSTBmRq9PpIYAmbDwcRhg8Dk/Ju/+RtPcBZTNnvIPeLhj2i1fWsmGRdqTobv/M7vXD7/8z9/+V59PYOFaL5QzMqZXDmBkeXmggspT1Yp2GYTzdOG9nXW7za2fRLe9hovjiwifFiIKGzQWLB+/Md/vFVcf9d3fZc3MLxex9/9yrV/c+1y5RVXmsWFgEWAizwbu97ccWHipme3POUpT/GbJOj8sQE/2ZiEeI3MmzMWk0/8xE/005L5ZOcJDB8WHEqfAA3RsuSmy0/8xE/4bQ8XPMoZPSWgfNInfZLfGvFmq8tnf/Znu3mu8Wm5rnuzQP21X/u19osYWaTJ8bwR7g0sGx3eArGg4W/LcHFkYfz0T/90L/Rs0Prk98Iho9S96X/Ywx7miws32mxSwGTDyFsvCostv0fAhQYcxoMLEjf2LHqf8imfot8ReYH7+EAMn/mZn+nNJmNKYd5x0eFJKDdD6PaGDv6Xf/mX+0LEnMQf5Mk38mwiuEniho0nUlzkKFwQOB/g9w2cGXXgwsFNB5tMNsVc3In56muu9sXh6U9/uiW5yWOOPFEXERZuLrR8Vaif7DP/8Wu3cNHsmyC+KsnFgg3QMW3kOG8YewqbKM4BfCCHvFF46EMeujz1aU8dGzneFpMPfCR28s/TQAo57/lIn5tx+O0feeHCg33qj/3Yj0XMsfSNEDfYzCU2M4wlN0X9IIY2GIwl84K5w/nHZpixJE5yvF/pdYaaDQ6bj+/+7u9eLtfvCj3+mx9v/d1zoM81NlNsunmL+eQnP9m6zB/ssWnEL26CeFjh03Bn0WfDQ565Gex1bfaRp6RgUPjqyNd8zdd4XPsmDzrrMf7url/wmDfcpDF+lI//+I/X1w5fs7zg+S+wPf5aEv6yieKmnDHma7TcOLHW9vh3vF0brA5N42EBGwYKuezSMXIecU7xgIXNLedG6/LU99nPfrbPC+YYGyBKr3uN1/KNPddHDh/xNYY5wjrAxumZP/pMfcXyKm8smQfnK/iJDOs1az5zFHtctxgjYuPhHzKsT8xnzmU2Z8w9vm7MOsW8Zk0md/jADQ+FsWSMWEPAYEPOmnH3u9/9nNdA9PpGmPySoxe/6MXL/fW1HcaU+ddv+VjrGDd84SbzF37hF3wjQD459znXiJF4eIPJec+6C9925C9zgWs+5zBv7pi33GhTOLf4OiPrEWsM49ixgcnTfM5VHkqw2eZmgLnPw5M+xwxUh6bhE99YYG6wrszrBNd45iHXYs4nzmfONdZAeI997GN9nnON44Fvj/Hv/d7v+a0INwYUxpEbB66XrKmsD5w3XONYl7sQHzlEj/wQDw8D2Yzj76/92q/5627cnMPnrQ/XOvYSjHfb/4M/+AOPQz+gAZ9NNnaZB9xwcQ1kLetzDLtPetKTsqeSLW5KeDvLHoByk/LP+Q8G+5c/01dIuWYRE2sjBbw+V+gzlp1nfGdOP/KRj3Q+mLs8lGbd5vxnHJjX5Jr8Md9ZDxjDd3ozpNOd+ckDLNYRriGch+wbmVMU4uTazJwFj3lKQY+Cn5x73KhwHYDPedd8dPj8P+7eNWa/7Dzre+bgOXh8iJNA7IQk86dpSAJEIUEVgRBZaaBS1bRVFaeq2khpehBV2gJSDUFVwVIsFeJPNPRLSyAERHoQgoqKGqlpUSGFQkpPKgmg4HFiOwfb4+OMZ8bjmV6/67qvtdd+3vf9/2eC2g9d7/vstdZ9uO573Wvttdfae7/P+9gb+BueT1mufhngjgN2GVOcE5yjbMzAZUw4VqzBZ15mHHGufNnbv+zyxJNP+GYjcujTt0t+bDm+0jGWc85X9fXLX7j8U1//ay9/6MUvXP7jn/zQ5evfnNfAWW55PbbNj4aSDf/gy0qiTJ3Z1EXLUYGXT5zP+EdVL7DpMyW1vf3fb9TkHzCPgH2Bnw/OUZYlG8RT9gB6wmS8URMPuo9eHqCDgHAlWFlKlovoYjCf1f/8/dS8LmhEDkEnHigZhbbaxm4gEiZL0uKjYT07gjz+6Qa3Zgi7vUnKmAT4W4LhgLMnAuOAicidje/5nu/xoOCVJ+5EMhkx8f7pH/vTl5/6Gz/lJy28esGJ3wvKjkeZwceEyQnOApk7ru/Rwo16J/vqtPM4GVlgvPe97zWLSZvXuVg0MFlz95eJ4Pu+7/u8kOygLw55sZiIWueE3xN3wll0cweVu5NcXHgiwUTRVwCYkHk9EBtMEMTkmQ88c/mmf/GbrMtFkAU2iw3udIDZuyEsZrjLyZM12svCm0mNO1Ys0LoJwgaTEhjcvWVzxUKLiZVJmbv7TAxcoFhMfNvv/La1odvbQ5kTxWlGCj5xIQWLiZREbEhMTj/8wz+8ngDxigqLdNLCce3+ByYL+p++5s4Puu973/u8uO3iAAQWivQBFyUWnsSJOHjcadIhB4fY967YzqsXvYPM2PuhH/qhy/d+7/d6nLII5qLGpIwP3Akl/sSMRPy56MInpkzc3Pljc0Oi7/CRsU4iXn31kTHLBExqzgWVtvDEkkR/s4ijX1mIkvCfCywXZOTQZVHERZQLRtti4Tmw6Ghi3LAAZpH2rne9yzZYpHDnkn7lCRzn54/8yI9cvv3bv92LazZ7+NXNRLGad3PAggI/fvAHf9AscL7iy79ibR4Y6/fu3dM76P+ZFyT0CQtA6LzuwJMg7hzzHjyLehLjh4s2sW3CDxYVbNxYmNEnLKa6oeGVzI/84kcuf/I//5OOD5tDEhsjbpqwEOWpA+cGsWWRwE0EYssmjLHNnUbiTx9jiz4ldnss609z9EnMN1xkmd/e80feo79xevPlB/7dH/B79/vcgjzj6tmPP+v5iUUZceZ85fztTRbOVV4jYnHxe3/f77WN6lLpucVYILYsyt78ljdf3v/fvd+LG57gdiPEeCQxBhjvzIGMTxYNzKuMN9rMTQDmV2yzkNrHFvNPF03FYs5ClvOH+ZWFT1+B5jwmdYHnytVhX7i2PRXpXEDO/EJ697vf7c0W5epyPrD5oV2MJ56yMbZpG+ka18RbDvhLPzGPs1B/7w+91/NQF6q1d4vqInHOMO5YwJNqG136lgUkczcLPcYKNokxfnNDibHJOGJzx981cG2iz3lrgljTPyR0G9faMGM7oNfrMGObxTvnCPMRfc54o73o//P/Qq47bSM3Id7//vf7Gvbr/4lf77jzFBca5y7jCfwmcGg3G6w/8Z/+CW8kGE8k5DiXuR6ygeM8z3Il2thEhkUs/Ui/cV3mhhFxvK19pSHLfMBGmTmZTRRvifB3H6w9umBm88Z5yfghMV8SAxJLovrDBgwfeUOD1POWtnOd61MaNjJdpFtQB2LCtYL5lWsI8yN9S2KjQh9zw6ibQ+byniMW0oE+YT7oBhU6bcVfbmoyP+ILf9vCTR/GAD4SL65PnKPQyRlDzKPdUJGzoOc8pQ8+rS8k4pvOXktizmauZN5g7LFeYV5ircHcTTtoD/MIT23Z2ML/jn/6Oy7f+tu+9YEmiGfXOcQKHDbPXWsxPogv/UxcOTdI9Amp448NLzr8PSP9W35l2p/te+o9jwx0deg4A4d2cg2Chj98SIwdfrK0lk+6uU2Mf+kXf8m+tI+qJ8GVOvacC4+nLWyGvqBdz7d949svf0D5n/tbv3h56xv01IZlt372dECNdflGIsOeq6hQ9wHaaEETj2c0XuXTJvCnbcsWOPygxtqfBCYfpyk4ixZS2QSpNHjk1UHUSNpYDaJY+pFM65bIDsZ66PhvfuVI5gz5hPy0J3jRXv4KjbN7gQKypUNaG7GVkBdnk9WVzNs2iUQlTHaFSG2SC+RcYDAzgJmgSCw0mCy5i8MJy0KSpzUM3N/ze36PB6WDMY3b0TpJc3JzMvAIlkWKX9/bbtg1MCzwugli8udkIzFBsHPnHXPuztzvgtnB0EG/+wONixt3xlhgMIFxV7gnFq+PVI/FJXfZ8IO77SRiQ2LC4BvxWKhx54UPfrM4BYvJmYS/3J3/ki/9ksvHP6bvs9fkw2KcxAKECymJhQH6TAosMnk39h994B95g8VGjbtB/D0DdplYmbi4UHVyoE2c8CwWsUdi88QFh8UGmz5S20aZhVwTi0rSzi/vQTl9jB8s7pj42QhRp61McPQtFxf8YuLlDjQXWPqASQ0ZNkaUWTzQNhJjsAv3+gBuNxJM3Cx8GVtMxNyt484h9nh6yYWNu3vcdSq9C1b6nacoTJRcfLmzxcYNOqmTOXfx8KtxKZ1XDBgLXFTA5kJDHJ5++mnrc2AcINNFP2OWp61sBLhoUAebRE4fMt5ZFILFxp9NEInxxLjn/GviiS0bGsYNF1TOnZ5vbBBZ5Oz4tAV/uEvNRZJ2N7FBYaFHzEnc5Sb2jB8Wc/Qfi9teoKnTF+985zvdftrFIn33D3lea0WHPsUGT8bwlYtUn2x24ceiCh0S/cF4ZhNE4mkpT93oay7utAV97mSSwObvjdhokugnxh8+3i8xVug75iQWvGwqv/u7v9vxaZ+j3/npbV/8Np+3nIs8lWk7uqmlz7mp4LvOTLWagqu74xBrLrxs3tk49ikkd47pI24IVI8FEucLiTmHtrGo4cYScwWJ847xQqLf+jSQc5LzgjmbGz2MRfqTuDGvM68wfqvb8YMccxE8PzVQnBhL9A9jl7FIvT42VtWnj7iJhB1ixJ1rUvuXfuTDUy8S5yqYv5pU2yzK3qObFozrzi315xqXLyCgr9gQ4mNvhIDVNqHL3MGcSn+RiAeJOZzx5Sd/qjN/cS785E9mkw4Gi3ieBjBXUGaMkXYbJtxyILZcK/GL6w8Je9wcqD43WbgOsxDnfKAtna/ahsZmz8tjbKDP0zTOt26CsE3bfSd3fLPNridEo864IOa9FnPuMQ/Tx8SW6zBLmj0ZR7Fh/ukNFOYxfGGMcw4yxklcnzg/eCX4ac2rXKOY09qW9u1f04aRzVPnptpjnmXe4KkAcSOO2KkPyBEz2sD4IzH/dQ7khhMbtW6C0MMPEuXaZx1BH3fugU+MmZ9oJ34xxriJQ515njmQpzvc8OHmLum7vuu7fJ1mrkcHfOYCxhw3qq7bZyUdGg9y+o6EfXxiXvzL/+1f1rdzfmbNc5yLXPeQxRfenqD/mTO4Cf2hX/jQ5fLbggFmx4uB5wCNOY8+YR3CZpv1DG1ac666nnOfG6TPfPAZfXvbl/uNmN/+OzJnIUcfc0PmA8984PKOt7/Dc1TXWm3Xbve1lPGNsUc/fuVXfaX9ZI5lTLrP5FcW3ZnTWJcgy7W/59Drsc00zx/6f14boKeefMPla77yLZe3/e+/rH8t8oXLU9oMsUl6SJsH9dS4Lwe2JFWlnCktc9pQpi2Ofxh0NqJ5WiKa17oigeyPNz2UIIg72DGtOjR/YJuJoMUNrKc8bjtO8+vhBB//tLHTzq5teVXMVyzX9ZF43vkFF9+MJXumKK8t6G4XlsUEHZn883UI1rD82ldZHwXYxDMxNeocyGTUdnkGiCikZOaqjt4daTklPoOXBSkLCyb39+jiQmLTQ5kJhZOVSet+iROtuCwaGOBM7ASIQbmnBqYXcCY2FihcYLiAsOglPfuJZ9eradSLT7kpIT3uaoLdSQt5Jrj9ostmhAmB9MLnXliyn33us57smfC70OnGjBhwF5U75Ey2P/TeH/Jmhg0HFz18Z1HIxQvdJ5847nQWi8VmE5MWicmhF11eiXj+c9kIdvPE4oEFIhPWbYmJnr+LImGb/uN1DMp7YjHFawdNPKLngsDFY++38u/KiS3y4P/U//xT3hggS/9204BMNy/cuWXRxl17LuDcTWXRx6abp2NMRFwQWWiy+abfwG+i/1iE4yebHRYp9+7d80SMDItp7vCxQeJ1KsYTvjDZoduFWMc3CyYWTiwqugkCu/1MPPcx1kme8YJvjANyLtDY7RMlfEGv8thvO/CHiZcFBP4gBw/M+gcmd5mbiC9y9aUbOGLEBqELSs4VYnkbPouk3hHFh32TiV36C7skzjtk2z76CFvdPLHg4Y4tGyUu5FzQWfT1CRu62OMiybnAgpGLMvGgDW0nttomfKL/ScSmvpqgAzr0Bwk/kd3HNe0pH13wGn8rXR3AIO5PP/20nwrD5qkVixXo6Dd1fiK2/H0dY4/2dTPXWGKXmxU8+f2G3/gNVme+Y07a5yEWfzz5JbGZ6SIZ/PrcuLCIIzEm2z7iis3OJfDqA3FiDJO+T08n6BtemWMjxNzBOH3/X32/+X/xL/4l3/WGRuLJEk8/2CCxobstcV51I0SbSB035PjPuUziZhkfnmyQWPRwU4sYszjpHNF2vPjSi34aZ+HXcKCt7SeehhH3boL2sXEXFBsBMLqh2eXYCIDN9ZBEWzsu+AZVxuhug3OEu8L0A7zf/c/8bseFuezjH/+YnkB/g18HA6/jabe3l4kD539tM646Xpkn4HGDqxsHaIwz98dc+nc8Nn4k/G9fIUsfcK1lA87Gl7m0yTcrNR0QHxK6e/K3V818Ufouw5i/K3ETgCdx3ABg7NI+7HNOd8HPeUEsuRnE4p25iPHMzRTscH5wDeEmDK8kkkqnzM0INrJshLihyaKbJ/nYbiIGvXlDmQ+4fBiT5e3x3/ucOZF28PYFibFfPvrg4Ac3LpgvGSPEn3biW29Aotvyc88/R9WJfuZc6Qac8wV8MPCVhA2SaRoD3FjiGskGhKeE3LhgnibRl72uECvGF2OV1LHWc9LE+xyY+7ju8SSOp4BspmhT/ZEr7lve6GEO45rC3031G9/wlxjRJ1zP+Ma4r/+6r3db937Ahdbv486JxdijrV94WZuR2TzTh3xIjR055zg+c51ifiUu9GPjeT2MOc+MMTllviTqyccfvXzkY89d/txPfuDysec/f/m1T+pvkLRRoD/SQ3M+bKcFdh0vcn7g8bEJDiWoqJQtxXhA//OrnHO1T4hEODwDonKmitc6eSXRYWPky3/ooNgf6Cp4E6Q+60YIVbzzQfb5aQPsE5hi59vgaBvg1kDr1oQ8/t4mtcYVMnaMgtL4cYqNyHxFhORkWAJxTlQUrXybCdCOSZILCXcnuBPJK2E82mcwcbFgcHG3kDvR3PUjQevFyAQdGggGE68YffJTn/QdA/Np7ZUbyOMzd2N5tYiNQb/5DB0eXXMB5REmg5n/FMzAuTUNOd2QDcEux8WPxB0MFi1MSkwWpJ4UlPnSAep8OrkxaXCXhjusxIkFBz7zZOgf/oN/6EVoNzKf0383pl38UVv1qXdSY+HddrOwJDFZMOGTeKf+637D112+8Td/oydSaExWXLhoAwsx9EnEjgmOSb53lz//cr6EgHexeVpAqvxf0100FnRsOmgDCxQWsbxC4Qlg+sNKdxzAYtIgPlyMvu135KkZ7ecp2546uX7owx/yxMvmjM0tTz/YcPPaJa+qsSllk80FhlR/KdNG6lycuINNnzFxIc9kypOoLui4+PQVMnTpK/oJX5u4+BMvNuhgczeLRJv4kPB794EFB4kxz6agf5Nk4hyIZ++wg0viAkHfknhli7vl90vVqww+8Klf2GZxy6KBccTmF/+JO/HhNYr7JXAYP3vaxxMXAhZZt+GwaWRhwgKPD4ti+pCFC34xltmIYYMFMecrCwUW5CyKGR+94YH9/cLc+HJOXvtH30Engc252AU0NOJLv5DA6WbWhKsDYxyMd7zj7Zdn9JSSxNOnLvCv49865x93Z/sEmLvF9+7d86uJfe2SGyReWM8813kKe7SBRQqLMxKvi7CRZONBrLrRMXMOPXf2eFAGq+OZvHMMcegc03g0Jy58fq3+hxfpfe/7YeddfHJzhHOzX3LDvI/fpJ4Hnd/AYUNGYk5sIradw5hfSd2YMQ/xChsJn7sIazv4KuDXmvALWySuVbSBGyCk9pcrVwf3w8P6ZieNSxbZ73znO9erjei1nbmu55WOQtQeN7YYe11YwWcTS+x7nhNjbowxD3/kwx/RJvN9vhnAzRts3M9Hzh/GQucRYk1qnBizvA7GDawuYPEHWsebFdB5VDde9G8vSB0jlNlkcGOKOf/P/Jkf8/UWPJ+72gRWlrFGu+sDulxb8X9vw3UdubsS4wNczgMW6cw3PP2hzR073DyiP3mqzIaNRT03sHja3X7o05jeSMQefhBfsFjHMO+waGfjyJOZ7//+7z+51Zi2Lc25eUecSW17ZTtGeBWQmxjEcU9gED/GB+OSJ0u0tWOD84p+48lQN09cj+DzhRZNtdfzt3X49bOxoN6+x+//TTcfuPlBn2KPGxucj+1XcuLKtYnETRIS/f+g1PbhF0/T+DAHMAYbK2SYrzm/nn766QXZsY/fbPq4jvVmD0LcgGjbqCNHu1c7eerwGhI6zFV8uBbQVuZeNjyMh/Yh44wP6wCuedzMrC3mAAV1pa4pTRBPTfSXIjyuf+Xwic+8ePnz/8MHLv/TLz5/+ca36ptffSmSAL8bhnVFcH9tOYKWE+7JDgr4wUHjOmXqWwIfnjVHe3TYJLWtR47uYFl36pLdq1C1k9FBH35x0L8c1C/i2CVtNsYcGuOiZETkKRHxdEzJ3ebM2xaew+pzqREIMmPuQpQnBitGqtMuZN0+jR9E9L9TZQQUpxTSgEUs85TXEQYOC3s2H/eevnf5Xb/7d7kRbFD6B7psInh1jFS9guFML/rocJHvBZETZz+Zq0OQ0OOEYHHM4o47IUxGLE5Y/FPmJOmJVt3m6OPLpz75qcuP/skfvXz4Ix/2HRgWbbyvzoTEIqYXDiYeHs9zd5enOiT8djBVbjvIS2PyZpJhoQMmPrL47h+BP/3002sx9ry+vtmxUad0scfEyOIJX3j9jbYxIbGIJzGhYoOLAa8EMHkxifU9cxbuLB5Y2N+VuBiSmJSINReCboS4OLCw6pckcFeaiZyNEJteXiWjDxhWnVTvstM+ZiPC43UST6z2pyLV7V1SvkWHRQvt4VUMnhIwNtiQYZcLXd8lpp/3hQZ9wAKPRTR3oHjFh/FF37FJZrHN5o5Eu9tn1PvqCzFpYvPGRZaJmPewuSPJEyUuDLXbxTQXKxLtINFmJn/uBjIeSDzpYrJlA3adGAedXCkzBj02NkHiyRjvZm5juYh8L2KMHxbQtIG7jdwN55zkySsXJO5+cq7tNogHfwPzwZ//oO+k7q9ysHFknHWjwXnBxZunhPQRiScBxIE6ixfGIe++s/HhbibnQv0j/rSHiyrnF0+L2CwxNhifyHI3l7HYO6Fs4vCbRHy/4zu+wz6gy+KRvu+rcpxP9BUx4EYL78FzzrAwIXEOtc9M2A70A76h/4lP5PVfxh1P1rhz7jt4ivWeiB2x5ALKZqHnE31N/9OfvMKKr4wjFvt94lPd4jGuuTNM4qYF8vyRP2n3ueO346Z15Ogn6pn+oRwJeu9683Tnq5/+6svP/szPWoD5hSfWnOss0pkPGCffpzvtzIfEr4uS9sWBfC7R5i5a+XsnxgsbI8417tBzcwJ8/KHOjQ8Wu1000p/dCBFPNpLMRbxC1HbdNQe17fQVuixw+FsaEn3bmJ09Ptd49YzzlX4nVW+3DW1P2GUcMGZZtLKR+p5/+Xv8t2P8fRfnCLaZPxjDxJAPcXryyfPT5R13L9cG5x7XQs417rbTRsYK10LOM84dxiP9QFvwBbk9cU7//Ad/3ufc0/ee9p3jxpx2dH5417u+5/J//Z//kZ8O8jo3cWWMcR4xZxIH5hUWjJzb8P0/RtRTTe4Txaep7Wh9z+l7NsfM9bzd8JKegP3hP/xH/EYBPpOYKyjzBIgYMjfuiZtlzAeMZdK+tqBdxJ8vgfmqr/wq3xzC5nXCx+tUv7nGcKOHzRY3eZhzwLx3757jQOzZ3HAeERPsd9yBQfmFF3O9YIwhiww4tImFN+cE6wH6kDUX5w7X0CbiXn9Kaw4dXW6AMTZoM9dGrkPcrGIGY3PDHMN1i00gYwofSO17rh/oMH4Yp7SPBP5dCR5jfJcpbl+phMeHG8Ik2s24JVYkn1sy0WsqfOZG/OKHG+1cK7i5xrzAK77Mr8SINSrYbYMBrw74w7WU8YuNzpmcN+gy12OPaxQ85FkzwqPv7N92Gei8YDPyW25KRtca3Wj47OdevvzE//iBy1/9hecu3/K2xy/Pv8yTIEnq44X/bN4M5/bBUyu3D8JEPFEndr0pk4W97TIzWsBImzRc0aJM51mc7JVX0GEeg08rhmcJHVQl3lWG6/oGB1cwbrBjTuNBIrNuEFwEENlXtQ+RPf9fOMWTr/BOe7f9SYwBopR4GAO6KeOtIX0QVbRX+Ua8+IAcfWZJcn+0EYqjiAvaAogq2Xl7nvrVET1AyLl7zsDjYsZFbk9//D/545fv/9e/34OIwdKTvzLQGOw8teAixcKBE4CB1pOgsntuv0Xw+9Rf/g4vcnb+bbZ2fsu8TvbuP/DuVj2Bd6PBpMlJ3z/65pE5F+8u+Gi/T4DR5gTqiQOJk5WLIJMV3x6zJ15PYkLjjsN14ikACSxkuPvLRrOLJU5IFmPwOCnxh7vn3Oni4kNisdcFFAumxgseZeILDm0g8ZofiYszuiya6Sv+AJTFK3+rA51EP/HkiL+R4FvNrvvUQtuhfcwdLS6cXKB5otNX+DZRF/GPduE/MWDxysKXjRd9w93Un/iJP69XaP4P9wcbkE6QxaJtjS1Pjpggu4FlEcLdPzY2jFsW67SbR+7Ypd/IG0vizCam723TfhIXXnxhowkW45YLKJseYsUdI+4s8moTizs2cGycmExpF3400eY9ju0X8rZjl6VPWTiSrnWh7VjEnIseFzESF1FoXJShMRZYuJA3YbcLbeQZe9z55yJKf7YdyPOki4UHrz3w+mLHFa93kHjqxEaFjQg26Fc2PH0FiljgL3ok/kaIiz/fYsSmmziSuLBxPr7nPe8xDvHj4k0fslliHsI+/camg695J4HLIhZM/r4OPgt5FhbYpU23JeJKW9/4xie9kKWvuYnxzne+0+fNbZsgcNAjMW4471nEcL4yXvhK+pc///Ll6aef9hXCffAAAEAASURBVGsw/N0Ym0xPzJsucx+2WYhyV5ubHP2SAjbjJI+LmaLbd32tyQJzQI4nDZ7kRQOXD4kLP+Oe85x57l3f/S7T2Uz2bng3n2Zsh1/3lb/OtS5KOmY3EcfXr43pqQrXBzZPfc2WviSW3QBUj/OIxB+Mk8BnI8H44hzmW0JJxIVzsu3KhdWsdcAn2ko80WUMMWeRiNn9rjHo9Tyi//j2077+1D6uIfqP82WPATLUOTfw9cd+7Mc8DzHeuDnBWCWxLOBGFnMuczjzJIs3bjiYP+PJle1QfEgsvj/6sY/6SQjnAuf7vXv3vBFio/utv/1b3W54xJINLO3Hv7aFcchYxU/OGeZEboyRiAULJHSYd/5tzWWcm+hgm3OdjSvjlf7ib8qYU7husUmA5tfnjMZCKa8UTXX50Dp5/SJn0U0cud6zqGYOpdzE+c5GiZuFH/3or8j/x9YNQWTYBO1PY4pdfa5FvOWAPrGD301TZXrOtE5eHDaVyDNXEguuR4zjvobHuGPeIxa7nis68K1vzAskNiyck6w3el4z/xLDP/ZH/5hjx/WTGxf7uYnN3pQz0HbAdz7EiSfU6HFjkCdnYP8bemuHNw+44cj1jFixaap9rrH0AeOFmwiMYdYExKupsbiuo8P1m3xPXGN5HY3EucP8Oktkn5f7uYkf8JvgcW4Wk5ts/M0113XGN+c6fcqm8n4bIfTxG3zaxLWGObFzEDk8znv+PAGbXDs+rLdVPq/+4jzxuOhSWU18tX+ogrOqg8+NgEcf1Zs4L+vNh7/+wct/83OfvnzzF+lv9bwJYlEvOf3wuhnyhiOfD1BDpajEIp75RSU+bGAwpoqOSa5S4yNZfuDPJ7LUEUeYnNTGND9TWzv7E/+MPVivKA74T+PIsG8pxwc6SOLhgD9UTbSPEdB1avklfsuWS/tLMz5tA5YczBQN7zLcCAwNefn5Fd/5bpETpMjoD8ceeUj/QOrTl3d/r55k/OF/awG6UYY+DhgrnYHEa2DcMWeAcLIy8ZIYLL2oVLu0D3zgGX8jFa9eIM9J0YFY2dvyduiOexvtNt3SsMUiqXrQaQ+YDH5yJgHuojHJMEmRoHEnhX+a+VktbrmY+0TWbp7H1TxZYuHDwpgLAicYkwGTIRemvv7BSdbHzKXxigP+UO9kwGKGu17Q2Vhxh5pEHf+ZBOsvtol/6xa8OqBHO5mM0OfixsKNOwLPPvtxT7r4TjuJEV8X/NQbc/eNhSs6+M6EWh+vTLjaPubi8n26k8yidd8E4YNcuZEY5/j41FNv0sX1CceTiehbvuW3agPxV2z/y77s7Yr5J+yrT6CFk+/9x28mdC5S3GEjsZHF997tYkFOYsLkwsqdw7/zd35aG5nf7NfS6Df+gehLuggx6ROjn/7p/1Vxy99gEB8mWsYFbXnhhRcVj4d9ocZOn0pggwUsMcUvJlPGVLG58DGGIq/JQeOI7+bPZLAaBsxKT+iVmxd0B414Pqn++7vzuh449+7d81MUzsV3arFJOxlDjAn6gjvH9DkbPBLj3BP6QmdCelXjlX8s+xnn3/7tv9N9zhNY+p328aSG93lZJLEg4pwAh7hxc4NxyHlDfBnPxOhXfoUvNvibLtPHxIQ2sEGGBxZ9Qb9xMaNPkMF/NjPIStn/N4Nzqol2cl5wPrEYAQM/uLizwPzxH/+zavdv8jn732sRQGr7rsdh6vmmLGJGO9mgsXkkcWHj7t1dqedX+YwT+pQfUvks6Pa6K3OoDFXa8TN6ivR2LUaefvppb0Qf1ubiS74k/8/nk4oN89Bb1f43a46pLjnxY3HAfERsGMO8p/5p6dBf8EjMOzypYjFLjJmr0PeHi4V+uGjwRS6c+5xL6NaWQe44VIZrBLEgMceDQawZM+Qkxif/F+WL5SfxqS48xgBzFoknEOjflfCVfwHA/MSijg0YmyjGCP7fb94Cs3YZx3xrF0+SmU+IHX/zssuwsP+knhgSOz5NxaCO75z38LnOcW6Uz+KL+H9Kr4UzJuHTvteSioEsGJzz2GCz1fFFezm/uE4wfog9cWQskIqBHNcx5ngwep359Gf0v1V0beA8bOorQ/TBp/QNZc99Nq86MZeA4+uG5Bl3yPJ3Hb2G0F5s1H4x78q5Yfmi5lbk8RU85rwn5/yhXYxt5iTGJH/4XlvEhBsS3EjovH/d92wykEOfuKP/Jl17vEiac5axS7p+2tTYwSN2zEmMZeYqZKHxbXZshnkzpmOv2MTB7VG8kQeP8/lFtYl4dzzRX4wf5lOw977g/OG6/7DG+ts0vmnf7hfnHDevoPc8Q4dYYZPyM8884zHK+oRxw3jFBtcJsEncRKJ9+MA167Ws07peQJexQOKGDfMIsWaM0f6OB2i778iXj+xtcw59gz56pLaRthkPmjnnQ+0wfmg/Y4D1WlPxuJbQD1wLfvZnf0bx+LhjRF8aGLMY2HNIoum00XzBZuhy+Ut/44OXH/27H7v8li/S3+6JwJwq1kr47esEOR9AnQdaDXQbGTuv6ikK5vy/gIY+UoipiBSZ5kHNT/1GuOiaY3FKUXCV2tDFMdBGD3cd41+r+IRu7JaXNhGeI0BqklNsU0TXNUtZeotLOByDQn5OY3vhtI47yPIJSvWCFvJDX85GSDJ9dIQzbISeeeYzl//gX/3my/u0EeIkIXVwubId3AC17K6FAReOax4LbhaMv6SL9O//fb9fG6E/6LslnGCPaJK+buZm7kYR+8QwwVWgXqMygbj2awcPbh597vTXU75rwVRsPwIcQMdR5cYZ/7oY5o/P9gQujfYgu6PBtgHerriVgdhx6ef74XUccKFrshsaYLfZaB9z0ft3dNfpz+obyH7D13395e9rIrk8/GQW37ShYNe5GPzH40f0N15vedOTl088+9El8bYv/tLLJz71XGKAPwSrCT3h8pj1C59n0cRdp0cujz2pJ0y64D0lrOc+/QlLP/EUiyL9j4wXbn8q8IYn3qL/8fCS/2/AC8/NHSn5zt+dvfyS/v7sMf1/khfz3nTN7/lDjz6lCfSxy/OfYXLVXfk9PfyEHwE/or8ve/nF2H/ksTd58aYRvcbBrrL3JmPjiSf11eLj1yOPv0U6urv2guLiNmux+ORbLy99Lk8d3/jmt12ef+4FXcyevHzmU88a9vE3fpEuIOMXynTo5IyFVzTRJ16RP/uipy1P8M173F3X3eKXruPwhsujj+vrm19k4Zu7ndV/5PE8uWSh+qoWvbrvr4/mkDc8pQuvvrFu/NNf81we1SsrL2te4B9Rtq3FeVRtZgy/pEXS5dU81QzvDZev+uqv0Ks+z+jO8L+ijeo3+JXA6mHryTe99fK55z53eUjxvx5Ar76sf7775jddvuituvB/6OfXnVP0aet+3hyY5xJDkj66XnTtUpxTyN01DzGO73dO0l1sHPdzsucxuOoa6+82r8uen3UOIbun4uw0yvjTxDm+VUu+keMLDb2O221z1Bk/c9JdbWEePLw5m8V/Yv/3//4/8F1s/u6GzQGbrEdFv1/qaYAvPE1mEdqbHddxufbtOiY71m5zx9nbvMt8WH8v9BP/xU/473aYE3x+SgB5Fu/chOFVtcb1GsfxvSXutQG/ifI+jqD7OqO847N49Hlt0d7aL9ae79dAZOmw4j377Cf8T3xpGgvAvX30E4vnf01fMd8NXf3dbe++nOyq/2kPi1tee+IpPYvo6/OXCNSfk77i0bG1y9w25vALn+rXjsPGnjH0m7j5pMX0bn/HRadjYsdxzBSg677Z+4KgEgcSmPbHtYT0vv0zcRrxG9nef9dMbgT/qR/9U7pR9EH10ZOeiyKjuVzru89og8ITp3v37pl8nBuHv9f4jcFu6zoebWtldn5pzW/rr/KIVcLGq8zPZjOkDTXXfDD5cJ79Vr3Ky3rib//t/8VzCvPK/XAXvgywCWJs/5W/9QuXP/E3f+nC3wTpQZD7a826csJ+IDt2m9dD5nn3uc6h/HADMn0N3RUZ3ucJyPjZMeTBUeeo5NdaJk9gjbewlsJWkBXp4rQ8TgHLJm5i8CuD2KQWgajvlPHHvPGDMvyYIo+1ESWLvEuRs/D4YUx4fTVucC0+B2w8GkGbG2MYUl17n0cfzcXi+gTcQSjTYfdLvXu2yzyizRbpL/zX/+Xl3//3fmA9MuYu2etND7J/F979vU67frXYtXnbBAvvGOSVvBlH/GOjdFsy7gPibhu3KQ/tWv1B/XwbH4xjaJ6N0ccvvfTC5Q/94Lu9Cfqap780myDEXvmcTs7Ir8F6Vl+1L7ykO0LPftZ/bMfoUFX13KFCiJsdtyVu1pAYxfpOmLUheO7Tem1BNJbfXVjnZRyfh95CEHVgu0F6QRsI+gO5z8v3l1m3K70873Vj43o8gf/qy89pE8TGJLo5ocfOK/rfSDLifYD49vOl7W6Ute5/eEELeRK2vzCbqdaxxSYIHuXnP5PN32c+9Tl/4Qvte/H543UDVU+p/fLcp2ODmEArHeHPv3C82nndfr0Zrvhkk7Xz4ut50xQfNWF//rPaBIGcNr2qDdLLbHKUaCtykY0f3UDCz2wV/suy/eInn4F8ef6zz14+9YmPzTjQH/iKpshfPvfZtP3Vdqalc6CtX/zUJy6/8KFP6O/zfkTfMJZvbYPLDZzXkvBTwvcVve2c2hUeNP/4/NMTuT0V0/Z3xh3l2+ZnRItzh5rJ91tg7Xr25RaHHjRH1YdbVGP/ehLbjHqx8or+medf+K/0Gtd7vAmC/QbdaHtQ2mG5872n+lTatW/XMdmxqkN+jbPzWn7bF73l8lu/WX/nw3XxtMjgdR7+PcBb7zsec50p2s18H197uZLX16/b8K7bW93mO8a17Fve8tTlm7/pGz2nHNcRZhieEn5BG5fjK6rBu/bxGq82yRtfnkT3bQvo1+fvdf8hQ9r93mV2eiRv+lU6OU8R+DTt9ndc+PW5sqEhdS0Zm7eNLUtvjK24w67ybTYXU4Xb2lv+43p682u+9G26UfXCelJTHrhvfbNuBOoGVtNt/XWN/0B/2DC/jnSNv6sW6aO/8suXv/czfy+vxWnOfvwx5gjeVtHfmT/1Rv6YXn/D9bxuSLxB4+f+c3rxM4pznfrJn/6wNkG/ePmNb2YTFI5tjwP1I7mOvPa2+pwNBqe/8m6CKLNCKT0FjknwLYOOSItRAfJahZlySocw1KOGTtM1524pu8brcPqtlqXtn/Caq2gxBuzA0UqxpUcJUSpTo2wORxeXXukQrIMoKWAuWgeSCg+94zv/wIhgSFORBB9Tp3/wo89f/s3v/NrLH/qBf8l30PAik1CMG+l1HZZZN4j363l0znvNPHbkLgB3Tw8bBa9e67/afMdxY361QP8/1LuKjVtY2gyPDDVxWkcImb1+0Bh8jz32+OXH/9xPXN7zH/7+y9d+yz97+blPPnd5ixaR1xpo/WpSPTx0Q/Hmf4g3ZQ6Pb+MdWLROJ5yEHiSHTtt0LbtfuCvDyUh5l/XJOsYrB5+Pz8sRDp4qUx+Vyezx8gUhi90qW02Yhzf7RROfUg/A3hZUolVvizd5Ia/YvD8tWNuMZflo+NhoJCNzSzMllqfX8BJHW5yYjvUjGzp4x/WzzlWsPqXOHbQveerxy8/93V++/HPf/Vsu7/0jf9CviPBUIBfBq0YV5kbeNl0zdv27ZK51/j+q4861e3v9H9uNf1ww9Hcn744frw7SZ7w28453vF3Xm7kzsqvv7TkP/nAk68WHxsR9F2h2425f7ubETFu1uwONJ1e8Pjsnzc52GPCN13qu9amTsNuyCXcerqT26h4X9DmZbrR3V9iMnMinioXooyf0ylw5geXMHt9li9eNPT+uIDKvqbLqY88g25xQsjBYW7j/3JZaG4ErIGCvJZCsueVb1W/NJTWC+E4/YZ85tNi32yn3VtAz8XWInhVbGwdd3cHqWVtc+etcOmrPGx7lSwuuea3n30KwqT0iWN6vIl/9d21w9//AnSvgQWhpmogWfwP6kY/80uX//ns/o7/h1JcGjQz9xrXgn/yae3qq+PHLr3z0Y3q7Y74lT/Qb6YqGLt8Q9w8+9OnLH/3rH7587eN8ox03rfL2VGLG9e/Y8uj1BLHnxpZNxI7HvzQ9lmxHX+Aw9g5aPLKseKWDkDho7I2Ox+Et+Gk8usG63zFY+D92Gdm2m3rb593NjHr8ELrPjeZIu0xc7EB7IO0dYUt5DM0YqI+W5oDPzadqWg6i3JJGXhuh/I1QRIJEA3lg8+EXNXh/QXeoIWO1lulMPuOQeiTqfsoD8iT4lhmaccRj28cu9bGHL0++Xd8+9XO6U43IG3TQaycxOBlVkzb7xcWey5IpTUWDgTfjyaRTgMffMO5zFEhXT/jsBLCS69h3ZbmcOrIjB/tUnmr1zO8BPBjo60OZtu+pdk80VereotuAMIYxVfuybCzh2ws3MG8XMxVZy4//xO1FOf/Wxy6/+R16T/pFvY4i0uuBjLVqrAakCTdcGf7YoLZp3JA+CIdeaaHoeAK4rp/ZOTXwtRNDpp70547MJJPXoRIM6fj3yIMiJPXToFBJnb7TROkuFCx2XYZfMysPpbKLvAppk6WWcnDwoed7N0DOAQtzMlfWMFvQqxB+q7R8nwCX73VS4p7ApXCjRfhYuJmLUkVpY7UiGfiZsOdiYwUOAjOeCQNL31hB9bxO8KQuZD/zS3p69Sm9dveE7hJ2rhv7kg6OC1MBd4oHc5w/6Z0ED1HrlhcoH8ftjZJiY7dykdOsaaPqwGkxNg0cgojQT6agOQhiKC+mahEc4NvasdMs3wMGpLfsly4acNUz9Ea7UTdBCnVYdZ6Y96k5ZPurAtcG5s43PXZ5x1ue0N/76TqmvrRsYcQOlGSXLkQlL9yUgwePtPyHBgj5MJ1NnTLzHwuaRUfcFRWUaLM/Km9kV1onZ7y9NBu4pedC/AHzCbXr1KYdYLOD2imhhOyVDH51nIPvtgwmj/HhQ188QRCbkxOqkhozdKwrGrFDnIQd/R8Vp9J4Ykefcisbs/ofK3XTdL2WrLts6k89JQOrNsB3eXw0XkGFA78Jf5poxylRh68PWfluM4Ijj39gOg70tehup5RYx8C3vlS8XpIMqTiWVx2dFR/KyGxyVMakeZVHrjZUXMmyVRiqfS0wNOxQn+Ti8Pc7ieXvPpRWn3nPa8eC75iMD7R9mh7Vod/wc+xXtnchkXPMxNhjFzAd0eNDUo48Y9Z2R2dYZOaDQ5LMN3zxmzQEv8A3h+nLC16+vKDPIyo/qz78Cj0B+tpf89Tlb//iZy5veVTf8KjxxavEGXL83Y++JEWflyan3lh4syETWPr6N/JPg0m5jvOUChfWNd7zCXwaz83i4OTaBWS0kSBRxw/ycObaZT34w7MeHkx7rX0crLthU8ev2D/kWupaoPXm1/7aKZvUwed7/a8fh9/TABteYQBYKgt36nfZrx8jRgACQLvzu4ucyr7R/OV6IuQOs58yu3I2Qw/p2q+O2QJlBCK1p/JNP3gRwwtoACs3PsrZbf/C5/SHf1pg8OiRHe6hjYw0+Oo7OpyfTnjheBCB7X++xEWHwT/JAYsDpUwuB/hdflTjZm518K+9Osxs2AU8mJQUXMss6s3CmU/tWuYETaWYvXMWgYoZ8OqwIEV3lEXYaUvcxOEQpPuBLqWbBdQ8F6n9n9ImaOsaevKkEGu3enOSw+FDqm2PyEIcmUNu2jtIpu9MIZ6qZ4v29NC5Q1JkOA9p4s41RN7YIcbmEUJkPI7hKbbHJBaj8K+TvROD8eyftbiqJGASUICX/sgeEnbGVWQcOWRwzvXxcTspMkbEl+rRX+hYJYfyDviNeXsxWEJfQDvmGXxz5ww2jNvN2qn4TFGyoPLhIsUFIgnKGQFZt7Z6EnlBTxEe16KMDRF/cIpW0lFyvVAmt02qeGa/kpVCKDfpAz4Cd/CxZVaMJpb0ap0I+6gtVAKyNVsgG46lqmTWnGOrDSMvGasNbFSquNmiuJF3/yj3omf6yLUPit+6c2RwgbGjT9u9v/pSHoK8hqMvabo8p0XOW5/gnxqrPcJAPTk4/Opwlezf0Oza+EeDPEyGVyyI1hHBd/71pKNPkPCdz3oiYIDiTO626eB82ra7ZR0ZtR8+2ANjQzxI41lFd8YO2AY4BKrAk6z89xMwX3MjYy0a2jS+gBzy6KpeN3dx1BqD5U0FYV4nhHDF9KwTKsK1ni8EeFh/1+fcm2BiOJsOtJZx0bVm4GkE565q9iNYMpDfQscm6vzEuHkdZ4dgS2BnTsga5NBL88aeKg/hs3zvAhWE4G6xsdI03ibwBEF9Tr6eKuYhhuaSH6VTmE8VNJKIyzIiPfuFCclHBb7SEpu6gkScPK+KbdsW5DA1Zawj97pxLFfL4iOjjzcInKfqt/TpyIjXr1S26kLkWkIlfut4lEsXm7ZgF7TI6Gaixg66L3yeLz9RQXz+JtZfgCAdzlf26c++8PLly556bK4fIpCMJVOpUd3KwxQVs+zH2EBZBj9Hp/3fHP5KxJ7K5OjsbaDM3/2AjzOTpXSiuYLQKS3qKoQ9SCfZWytbO+IDUvhzBejW7rS97Oad4df1ecgSj0aOiR5lRaSBNCu0+O9oHbjLJ3RG9+AKRv9qpFhV5dLnoSIFVF5WsG+kBXwFatGRx+DcWeDR3ylJf6xcvvJJff2g2C9xuBKD4K/0ZhJzp0tr/LHfHvwaZbRPH11qVmxKi922Lgbs/moDEkY7uejK4NaxYwhfi+6Oq4wzTRTBqcjGqsien9mjVDygLVyw5lBb3tHuKiM7ls6ZFXojxifh64G98oH7mM+pv5hjjhTAenBiHUJbCYmZ7Eylro8CmlL4m0JbNiRkI1P5bE49ygex3mRUZjDFT3+1oxQtEdJhCkCS6GGtwpCv6ybPQaNp9J2p0gmRuvF0OPFUYQyaVhnVIqt8BhlZy8siNFUeFtP9YZDEwPpw57y0jvx59VXehVZMOFcspLL9NBlOeFbo4fAvjtbb8snjcyWPUzGeWI/i2IwmOOGn51e3hj28YCOHDeVSs/s1stwJ1igvW0tMcixyntBVjEnyJd0lDGo1RMyvdFUgUR9Y9y1k1zdbq76Y1rP+dnA/Dyy4pyQM+sTtE9PRdH9tdqRgH0bZZfspsDYShOVPLPRC1rEI1ebbsCHEpRzjhxhn80hutm6yEfdYtRyiUNoqctWN6QPSbY1y5nr9qGHd2q4TKhzhZTP01if5Bi0ePiA/FlRYM4CDgxP44KMOfYV3bNNUFaemfCrOVOP6JE/wCc9yTzfSjCOA8dNxHRBj1NzgwWLOcWSXHLZT8XHKqB4eVWSUhrVp7aKbniyNsfgmr3Zb4JDskwVTHRpuJ9USueSUHdIpZcsgRsehJFcMDBJdbnx6UYCa7Gasg0f/6dUlsCXysBatbIYQ87diqZSFNGsCK1uXBSOLdW2H7JcPuIGTzbGvMmDSxhKU9Bc1V3UgR86ZENgIQZNTbIaIoXUrj5xojAn6P0NBAJYLPnD9LH/cB2PIfJVdHdpi2dDySaLx0YU5ILv5c7AWiPSnPHCOu5zNYls80d0y/EbGuYnaUIg2+suURELiBjfytF7ynIPwqBmIMpj5vMrmxJvbWfNJzilGVYx27RSjG9FgBb9fELDmFZRAwJZ8fth1fcPrG/RnGnr687LWmdyMp4+Q4aEw+dv1mvRL4oNj69YbMPCgSs4UC4yPI/KSAmCbkLc0IZMegjtTdTFH3Ro9B2iZy/BHwFkPm1Jc0bG8sb1EVmFz6uTHTr8qS/em+vRhHVsqe9sW8RaAtDlxvtZJPTbLa+5etz/pIWy4V4iWy7W6LmPtr+E+itEjoVbwLCRe9Cg+JM4lZA/984ZneEwQxqQ+JwPu2W51I3v2BUvSZYcoMfY/2QzFIhpd0NmuWwg+iQ4BW1KGDn4051jTI+9s5GdIbzjhBmwkgbwzHUxOAPQ891s+EU5MxhfL7GBHL0wDNmawozJt3PpgE3xAcQ/AeNOYFU8iu9T9AZG8lm4rd83QjgiVt1FaLNyN+KCzY+/l4jUvr/lBpzTRHGINwxgO+ZwjuLNJWGevH+6OrmEq0RyMSgIhOr+yk7Fi2Bx2MQk1DCCdfeF8QiUcn/zVZeAZn2wVLBtp9KpPGSpJuUAXTIi+4HEuOpnfSuMrHdqCAKw1plQMpFXhHeghLcpAFrEKm2cnN3c/kUV9zSWDZYdcBoVC0VTO79AspDIprz7wNafE1/6WLfXEk4VTetR9CFVtZhFOXmuGE0henTC0SfbCHRvJjgFqB9lSlveBuOOQY5vW5IiTkrU4tlM2jicgN0IQNIKP+GRKyaZiAmU+BtNRZXdgMMvzPGtsRNNu1G8m6QM3ybFU2e2ARZv4UR6LCI+C7Da2+JOfsJFtO5c4NHTC8VtKrUcmFiQmiS3ZHD7A0GHMHxLDM2PKiI3vjf3DGi/6MnpBSAZlcn2WrwfglQNbVfJN1yVYYEF3210eqfYztEPRwvFTDKcymw/WBOSkK3m63qwxbC3ZooVt2wArK2bAkLFaAYZdKfTASFLuX2H7cj714duPWRM8/IrOvOwsRl/RkADfVpZNSXBZN3DevbL5bntAi+4yYxcHZJMFshfJyNtgcBvrcyDcKPeDxdOIGT7jO+1PY1Y782oUfkZf3kmKHxbcmU8ccbcbuuTwdfIEqXKxY9PAMQYCax0pebFUEnKQXKewkvBbl79+iua5T1aB5Gkcmx497XR8hcKPwSYz1IDYVzOlC64OPg8F5nbbgXhlNvTxBV39VdfRlDig+sjLRtd/yEKt9o2+HR9tAynaoH7Wu0aqveLX2tjQ0l5/i+n47+gqlp/TE6Ng0ztKK0jjrG2DrqTMpTkg6uuBWI6BkOgeUnsvBAuKqlxKo67cJcvfdQAuUi0dOqVU9+CUcs7tmg9n+nXtlhBYxLFPaVSuwcYjORJfdo9KXJG5NrvqSAQp+KDUUso7LrYir84wxiEfzmyECtF82dvgQ7NERvXwDoM5qcfEnIy2a5HDdJ1JKMbmxiZCxwBgCGbQa97TRJUh6WYLHPzYldTCMIAdNo6qtlL+5LEMwMEwbYKFVmTS9vPx4BylswTOhadOmNG/TuRNtHcA8SKxuYl4UCyF4HxQSi2lBx+LcOhN+3uGbhCH3Y14Z/H1SQdm05nioqgwnp0t3kXfpNZiXLSFt/GhXdPbN17ArL6TD5Q9owXAevsYGaD2NsAuR3DGp2iqZwJpD0jqSma5KJFcHA+b51hYcekjfUxC0qkwFx+3FFuxRw6bjyfdValesK124snGsLCVkBgFpODBL0llj3vOLymaLNoWSleMOTptg+OS4Bh74bsGXnCoWsykgBTDhnZ5KZlnByK72NCmkqLitnx1Q2wzBxgShuwshZSDgi51UuJfldoZ3tbGzGOjMfRgnHVsWoyZ2qXQ0mZ0rFvfCpJp5y3PcA4JCdhEPHVRhOah6gjBgMpbAHNolhs4JM7pkIPuIeECh1hijMQd1Y1JnU/u8KdsKx6HYJRmBZsYDOuNPmCrLmvqYDfFB+zXg2N8eIiYY0ciYQyKNmQXGyV7hejYwQA8SDYDHbY+e4LXFD7nSahnWaNYVFDJR/HgDMHZIJuJwtSXiGhtZFnuYAQmhiNrc+O/WzD2p2WSJm5W62E0k3HZPqWlDzV+HGNfqHT3+MT/SsH1U0wmxtbxgh0BfFC8EdfN24e1kwl/dGWGHjCsDnHBNVVODkUK+UVHk5jwGZ+dhQ4YJX5XskscYt9PuRZepKKDEn64ppzbKq5yjL9TyrwmrtqMhrGn4PhDE7tIVAMWfNfnYBvmH+Nt2Z7OfFjjnKHuRsv3vPIp//TEhtf8cCBP4pCpqRYAJ9nB5INxPLXb2BWtY8rXN8xJL7GnZdOHwkV09REyYKyE3WxgGDtsfpp4PkeiT9gMeaPM65M89RG9mClbFKkUKBXKApBXYcmUilPm6kB+THyuNGgSQxArlrKwy1Nt46guqahEdyZUXEtkkKRGpnJ+U7/f0Sqjd6tccH0DTPw17u4jeyvL7awdWqSyA0sJGyT4seeqDzsvVHX9OFI8tFL26FZxzqojJFbNmKG/9VeHpJvgS2N35Monm7IXhRDFUMoVfBfVuJirjcpiFwTJLZYRRyA8pFiIRkYDeMhBDbKJojuAC2tcGfBFbkH5GjB0gPw1NO2RjpEhOKG0KkMaIHwL5ZCw6JW8pYSK3StW9WNKtcZ0rJ74Y6sZUPfjV27Pb9d5vSg74j9OGbsTkClulHIOAxObTGXE8gjmUQriXt8AjHnN23FazoUH9yStDyeThwoI/h0UsymnHpfU1+Nb8/oQ3Iz7ylp1ugC+3yWfu53gdqxm7MgXFPWJSmxh5/B5wKRb+7alQ+6Mhs+xJXLLphluDzqm61gf2o5pbRB0cXZKgBInlacq4KAAtuDRlIHUwQ+PfFUok4hJSlSomgap/UXZaQFQU2UUsZPYHrSFCimghsjh8Mw8q8XfxonaauOmeS6OFcFZe8sbDffNKTJBsEtuQHxpYw66EFCGjSNt7DiwxgMxsBgye5pYDgmxPUU6yubFsEXis4q2u7Jd/Vy2/XrYfkcEKxpdnRzJITE2/KGKMsSkaGREuv1WEK96aKALoRiuR8bjACja41/FQedb6Y1b4IKBbP1pp8O3zRzGRVtdPZHaCKLgQFKXassGwh2dR9POskYy2TrWxllqGgOyfmbcTZ8lHkhIh1/sVN32Q18mpuDxDcb4RVPdVRWkrnKhSiY3bJnCOMnY/oliVffn6NTkICmjXfoZxity7vCFPsRoFuiVwXUPUTuDidj06DEtAi4eh8RHdryIwh4828UDyhyGlKKPHkO0lQ9PVLC3tZ1NxCvyMeNdKrhjEQ4qzyYDsGP9Plc8i/DKMpBqp/9HBL6hmBTvcC60nCXl2kAqozKtqUC01M68opb2JZahIe9WyX78lQzBwKTjk2IAIZLm3OFpjNq3+nh4Pd/QdNm+gZlrHfK5IRJsZIxse/UodtIsuFkv4i044RI3vPHB/cM/d/WmiG+MI/a8nhdxy6JHHb2xTiHJNPBupsgPR/qO0Sbo19c7dw7CmE0Mdkjp1ecM5rZfQhvm4WiRCmLrZ+HVJpGX+CpU8SoXH5Hx+3pDlHGCQ/TjgXXEb+BEyHkbmUC2IYfe5lgVJ6fZZ7maM3VBcf4KpR1q7U0PP0Tz/xEKeWmK3PKeSwFBn3AuWGqrRi9gKitNmQ50kZGhggcI0I6EC6rUFoq3pelIdOw8iPpMhkYXRIZdEAiQzvh2ZTlfXmR99CG2YgSMjU91T4eSqZHEavxuJ8GEV4utB7paUI90g7p16o5zaDy4dAPzwSr/L0m8Dk/Ubtq7NKbQevObjp4559oxbqq382svE/dxUdy6YNR2Lcoa9e6clIvNBH5M+pQPfi4A4UcGAH2MUzOSdxwYV/pB3yRwYDWfC6epB0BsmChc2aJon9BTLerGrhaQfdUrbUJJRJ8/KmrxsWQpuaK+Op2IeFsp5fUzVmMXtuhLbsTt5fJVMraxYfmCh5PwSKsQUVFoFr7T/sQWORL15KlOTFIZ0pUOvvuXg/y1zxbN4bouKvZJWVxQw6hBdCw3JB3tbPyisvGn3E3DdL/kK0O+twH9pGNMUa/8MG/NxsdbeXbRnHUxnL0wREJ0I9nZaa35zI68/qLc/tNBKOfTsbxwdlAFp+ekFdBBd29XsWCZ50OiI8IaB5QtE9ppjIxNu1v7E3SbFC2XEdplqbgQg3FJx8XDxVOavopr5qxX6hbcFJbedT2MnG7iuTC4QRyB6MUXt9j0wzS6Ed2PJrXtMKRw6FBHjz4806OHAqVoXM3gw0tmeRVXOgBEUoVYD7P2TdF7Tm4tRPuQtuNPUup0ya5/sEsdcVXRgJq3A6ADXDmA1BIAegMIkVOMYjMGo9d+HW/8NOUh35UCZ7xBFFPAuTi6Khtf1VBgSgqb1t3lEJ40sNQ2CeOj2/4Yb22Y8yqQbEIw4YNkyQWEf9rgRXjGtrEw0j4aWZGSJGeYjW7fZNk59MTcNhDGonV4AhVPTXC7QTVTboAx709M2TbBBebILGfPweAXef/IFhsg/4wGgi22TD6Y6LtcnoVB22XwURTsVM9yOojc+Jsk/gE1OJts7CJRqQKmD3q9deiqRy7xahzOh4HswduV7lM+KeBD+paQJoW2anYzfZk5d/jKMmdYIM1T8cApws383EaAzi0LWL2hV4V7VhLtUHp0RQHJU0qrDCC6O8wyHCrclrcOAOXRddYOHZmd5vKui350DxvQlCyWBqVCWUQ1DlZOoTmeIMGDwMJw+CJFJLbWBddY4uRX8hSpIF2c5mYODpIk5LZUHOydWKCKCNQD0mZt4A+go/QAkFvZ1X4NTjzQ0WLdaugBxGv76c+7lM6WInumVfNM7SRUauNa+q6FDPzKHFbEYYwoy8kqifymPwf8dCKXf+KBPAYmth6ZVtT5otwTRm3ViKz0Fb1XefVDzvvuGvIja19xcEvxB0yIOQcymEQLyXQXRQADOpeWPaFfjCiGa1n0iItJ+HZoWkeEWA4j7Yif7QPXRo9s2Y/RMTY+1wHx4i0KaIGifLIo3XU8YrIkiKPUa6X0NUcImHZS3xcI9v0QtvlWj3x0IACihMd7Ko7704y2aZeaMsIGoB0qqC4LIuZ4jY7oCqUaWVtBO9cOjDMdtxdGFLe6nTF1vxs4Ym1yXBYOXtbfDBjAJQ3P/KMFC1kFhy6HhVk9a2hAeVGA4VEUnGNE1X173QhkhYmcU8vkU25/wz8kQVxaVsWmzfowJOItmysuu8oGsZMNIgL+HvbAC/B1D8KRq+kPgDbc8AZddM45xjmu3yKKuNOCANgpudtCXIijSPZF+bquWWxkpbfGMySf8BbOww97ED96jK39GCwo+7eJEU98xI18qCWteYEq/IE4JEyW9UQXOiLoUc4xutGnDwPCWOCc66thxojyoCjbE/Hj43jlbw8f0maiNxEq6jFmY/Gt8uajS4oLZoWwSK1Ojk18PqoVWDS3FmpAcdE15Rl3U1dWHiHoOQHR0XO+CUVtGgF9WSiHVjrlvIKfm3e4wHgqLrrpDxjcdZNnS5nyPMk1XYzh2d84KxkQUaVVkSHPFU6WZPoh/cttcEfdvlmJEgwSIE0tOz9pVSLnmWq2Pj4sEOlFK63dDZvO4WQj8rsl2B6SJro2SrsypNHalUUm1cQtrAg88Bi7xLthMm6BlwXZSqdIbpiMz+IvWgl354a5mz2cIBd/1Yaw17dX4yCPxMoVGpE8IJfRytAoiBwOWgecA+/ISnsav2YiY90VdmE1OApMd3HuR7ESwLFnXOQzQDKQtsDKjmsRkVz0JhP3OPHgxc+RwUf0/Jh6KmQmHvVjso1eW5WaFVazS4sM4P6NUJmp6QghJwjyN9gnOSq1vBgPKNwiP4Y8UQzkLVK34E7Mj8DeIrOROFvcoJut8gXWovRHdVZhxaEX1oOD7FGz36qWQt5yx1TbBp1yZRadMSH6UkRKv+sP3tWOTqp2dhlACdFBilqIHMfg4psU5eCdx3ACAQhcyQE7Mw5TOV5mYSJo+6y77MPHnPW2euab8W1BtZ4xFzVsUlIan+NDiZAXoy5FniNic+KSpb0Qpx1uShBA6bYriChEViyVoU6KwKq4rat96ChNlsqhnnM8VFRYiKxJ2WSIbVfk1rwwdMZlX9PYVFyMa2oTBcfG5DsPDs/GXW6j77400CZB0yQ18WD+8XhEApoAY9oAgMCA65Q+aDm55S2TUqgcj94tbYW5BOcHahBq8xovSqbi0rCTnSpiBrPjGK5HpgoZ4y4E0B2ZIs3oE6bDqxg76pEdiwDaFffz3kALwMPW4O+ZYCGDnhQ7OyVlSQk34zvSgeMo9FTGBD2KTI4ZH6K1jSN72EuJo4eEVGcEBDfmDqEp0abzKWWKdesPoidzpxocwJO3tjRGcbJoHu95Ae1+RP6whw9BtcAtB+LghzDkxFRPVEIjvonbygQWxAESOzI7MEKJNdKkhCyepJwjAbNkVJZkdCTDr2SQcjIEfgqZb0ILfPyVAH+oP4NCNYR4AqOnH9YfYYBoK7nxqFMJzU9KCCBGmlSv6A61SQhLtSFsloyw+sMiCPFBavxDwEqsn2RrKai6ktqGPnKob4nNpOmi+UYePGH468VVzNMmEzmIkLa6n7dNzzix+HXTrtnHs29pibDmQpOHWpY2lN1U1f2F3cYIkRGzTNszNERvTcaK8DqPERw9b6qLO5iJpSoEaHgLuzJmqB3i11eLj1rifShnXhsUkwdIOB42om0jZpl7cKE26J+UcwSfNQgItVW01G8bM3miFU8qfVd+DDksBpPjro2MaTpUavFFOGh6Nc6AB+oCHYjND9TuSuNIsrjVkY6KIwKTT823OkqqHjxk9JmB2LswllhuVAZUmncTx50DjNrnAEw7z50gTtuPrH7yG8SwsGXyshJKqWb7cNAP2rVUZRqNs+TUMOwYdohdoQzIwtqbfyvg/YgayNVX3qI1FuN++riKvyfNWxXqb4xs8tMHUCKDT+e+2QGRWVhmHDVjHNWTXDdBOxblitd+clEXQxT/zqXU5dCCVf4VssjniA6gYmVWxYdMlljORVtCZi15tERR1gVfIELjgpK74daS5PSt+wab0PXJr1Xtx3EYv9Bjk4W4juYrA8dYoYe80YyIeBVCmKG8sG1/5ggkV7+sdtbWAGou8LlJdaCH47a4fE1fAhGp2yXfPmTd4onPlKXgOSTBOM0XFtyBJROtQ3d3OKJylLG9HKGwam4etZmBKnXKCZ0vrs0XAoSKcv5QHqQttptEi6c8eiEFboGKeASa9lDjs0tc14IkORQk6NZbN/XyD2gQj5Qax7ECxhRPksUeVWvokHNCxF0YfYGs+X90bMP0EIyxeCqc4ojBHXQrg+/qnA0bi6J7RTKEJKkKyOdMXXIIzPkywspQTjaGzAIldl09DstOSGsEWgFaKB7r9u5KAXuT7B/+sBZefkWefqlmNHTkN5VC2BpyizwFvNjO9uhJ0FEpMFr0Qz+4QSD9AZSyZBa4qstyColxjghiFZn0C/pVCDWExKhNTi2cQwpdYXnBrVxVbxnYDCFEgj+VnhN2Fr/5O5pInfx3k0oHByHGaWnNJ9Cl16Sf3lUGLf3iAwj1hTL9z7Yy+nPEznxs02QOB78uGUtfctGtf0xGDnnm+tHaclFEl5J9gR8ctFVyv/Lkh293M2kOQUIKMJ/Lm58mmqn22EELGS82djvwRgOmvUMpqaXEp7Vy78inTVhxoj4JSnyiMHSL1YndRmgZA9Y0itUsFllQGJvVpE7FcbEGHFMjNEVY9Ir1NppVtsNtLI8gK2rAyyHPXLYZVAzRfa5NO6kG60C0/Q5yyKMTxZv1jqIbSNIttvOpn2iADp3CPBEaKpkhDjepB8BMHRieoeRO6rW3h5wbspR3OaF4YEd2WbAsh6Xk0u5NJiBpiIjUQiXAVqsuD1pD6wkMJTL1cfiWi15gihH8o3alDkyZy5FiHzkii70VrDoDA+lCLU0RTnerR+CGnBWgLvAFcVvBUsfhSgvGYKlosdtArmh9InFFvqN6boFrPVNk+7jI1Jf4sWvtZYxUhzK8nb/asMUauabDSiirbhAd5Jt/tjFryTFExnhedgq88oWIpH+NOTrWl2/ORweNYkKPEjlyxZuJC/JYRyeTXrSgI93k864VLOrXNHzRZ0/dCO14RkMOf+1GdA5NlaZycGTEVy+xbFIHp11Lfu96KleqoueWDATZAbMRjyLd3qbtbYRW+hkEBel7kiHeqtsZH8Qag7PQwVJiUTzkkDHI5Moo2SB4QTF6xRCAZUG0xw716yScco+n1hKiXwzAQTIVmtxtucZCDdpxuEViJ1nQhI7AUA56pQ9fSlG++W6bJx9biTvHokl6tO0M47Z6fFatAtRNUwzQU9m+8FRitw8ecugteq5wK3YWiW1Dqn4EH9UxWqaqQ5EgEWJs4weKSS5y2Ixwi2XRYY1sc1NUsZp5w3HGwdqjdTML93YZt2FYvl4aC4Jwd+ipOpjy3bGvnhrYNkIa8nIkYyFVmg0sifhMYTJRRGLzgB2iwk9CFdm+DrVbQeZ4OopycOyHHTo8wiZIfLpBCDJ2VYoxQCYNFwgVF9LeqLAsb2kLsQoZXWFO6dBHB1v6cB4j4f9fg8RhxHFGF3PG0CF9hu7QVDANvCu/7NQNmuQzISe3EAd8wb7RXI6tERA+07lF7M20cPkbOXTOLUYAqtGsKRjVZJHCXCPcHydfLRHJ8QmlPJX3Ki8gRpKYku0KNHkooYKFro8Zrx205sCTlvwJWb5SidpkxPlIuP7AtCtUGMXxw6RVV81lmCEyf9Ufy4pebtXIAex4o27ebntvq+hhRdOyJ4oBfShEJA86JfMcM5+xU4fj6MeJJZhC8ag5DYF2jgtHPiKL3jq59DKaNmKxRgG+x/OIOELIyFaH2bYR2oBWEYA2fTQBh7QcHqtLp/6LbtFN36MdwaGN6oRLA04se1YdZPGBnEQTyKCFmCx1yiMRC1O3jA7mRW38HwwwSZZJcR3tytmfOLEkUgBqia3CEqpZdMMd2ye9Je6C5ZbimbfXIqdjgHfW4GyMVWzUN/GNB9j5dN/kbikabenfIgAJfjrpVgE39UZ7AxpyT/EFtrpiDVNYEq4rwax2zK7FsAeGxc04S0UWJD8DYlJd4ze8jCf5tPHcRLFrvyilxIZqVzrMvI63BJBBv/aMNfQ5SSowzhc11twX44FxxgliZCwf5yJlwrTNPo0wMqrTX4fO8KCLir+OgX03qYfRGXlqqIyb9i+gFbCpkiLGsZQlZrmj9uDSNUpjav8NrwN5BZ3H7nGpwU4FVFwXk5FT++G2gTOsTFltiOhBG4w+vVsX//oiSYf5lhgMCBL6xHIzaL55sjp7fJPYJh2IE2FaMHC39dFhdyshv+IRuiEGZ/lnlgwum1MgK68l0RZs+QpqIDlmTFpmZEdj8MXJ7yBSmfFqPGH13N87y4CoSNYrPWAgkhyRFK+OxuIcWPqbwEarTXORb9sgqIwFSJ7L6p+F5zBYyFiy+nVR1MPfXVFl4y1BI9A6/24xWOfHLrqV4yHqMj50MruyyYVyImyvPElhS21GQFbNb40lFlgVln73eRMbPfNiT7WROeDHY3XO4Y1s6Jf6MXSv7BogukvTCqLJCOcr1Xk/YJmzyLI0mpIHnQ96trTF3HPsckSyfhIvqaG5TeiCQTsouKzDvOY1qKbngP5WdRHCKFMHqNXmlbNobPVGCyKB5CiLroChApXVhl0OO/xy2Hzf7BiGuvWnBl4bCoR9xQPdzsYUJb9uCA2qaKNP/BDwWEbQlRGiSsIXZdlsWwIiSnCDh17gTYvRFG0vxcjWztCqaLdNA1uFHa/ltrX1hXGtAMOGBijltASS6mVPdRm9gS0BJxTC5NguPIubY7muBqzag23ufTtOCAx5zpTzPsJQV66NRWeHTzVxW575dGy54Sjrk98xouqqg4KMH7qaAQ/a9jdCIXBsOpwXpb7NQDG6BetIDAQ3ZdirbyRmSenTgDhgADPg8cnEN3TqDHY52osIoUXZ+jlYGP76ZpGqjxvJ0oWUXR9eRe/Mr4TdhjuE7Q68jibL3dRAzoOjOG70tB91fWzWqjf1D0obEcphFgMjpbyTpHORHQnyLX5xRRJWmxz41ahxLIL2cYrGu3GCGGdOg7rpVqnl8BaNoipbvbjQ7LN8gE05eXAZGTZjuA3gIAZKdZoR3ZB87Fh0BYERom4MNkE8ilelTzTE6li0jANmL42yVGEaY5FdWHe4V5tETtAlnthULa0Wf3MrmBths4/76EKaIRVxWx4zknGqkWVbVNPKQF4eGaxKo0u2yx4qEcARC6wWhI6c7UWhvQkNiuNKXObv8mw7mtvxpi+hDKazc38AfngybSqi/VHFekIafcYCMXQVWQrL9KLCSZwQYOL3E4e2BaZFrNv2LBgrozZCk5lfvVFPVmIRJrc+bVa97RlnMyaI6UTAELuhGoCG3FhSldE/Wp7SzBrV+oPN8zwSnKPhBlphsJ5IsXMCC+TyIXomjk9xog4qp7jEBguyimssScijQX3TP2znbxHC1wxiR6Lr0BkeUP1b+VtTxpbF7IBEx7TFr30Sc9Al7WWXFZZOgEZVvlYeAfN08K8OuJVDMAFGZib+rbhcGRDXg4d8PDIu40If29UcR4zAeeiR0Nv/ABwtmTN3YgfaILp0DOdZpUOVwI4lklJtUA46OPjDDxS7anAdyF22EIKal3ldypJhHgqqNzkyljPFMoGyr7BlL0m5iDUD7biujsi4YpWTYFHa7uAgklDVhk1EvbY9NGgzwn4mNR4dOkUf98UnPuUnuqtav2xYmOpXvIkF6fBbGWyONaJyIqvC/ISV07WL/++0En5QOevWMzceewZBBlCJL4HwDAF3Gli2z9UR9sgoA7mR7XljWGiSsdjE1Z1oZuhuEe2SLOSK4aTt46wY4ZbmJh7YVFFWKk5qiIghDPcKUONT+c1H3frQPHJw3M5DicTq10WHlz6PlypLFH+twcFtS985+IE6MFV3n1gjwPsRCytFUFUk+Eh5YrdYh3BKHmDx6+ZJNDBL5yisedLOxKODmxI2+bh1xLZtGx37NOW8oypJ1hUJkptA9HId0N8IXRso4mocPQBgQadqPRvPqUU9A9acwFhn6h50Ii/gg+n/9Is+RvjdZPgnXiJs5tGjAcWNfVcVkEVvYEaMrCob6XUXXxMGQrfY343tOBXdaZa9E6eMXVPlVldhEeKQqzpRGDgkZUQ2NY497cM03WcgpRveITRk8Sw8FwDrRJ6+BDUeK/d4krBlmpUOoIEohGlFIXQMhKNj/Q6ho8CexvTYhE+bT8geYxbzgFFpdA7zWRQ4VlLmhzQjceXQKkO5A9ByxTTjOGwtXMTSmsPAtTsgjsZIwDr46H5NJKCddadmhg5WktAqhlCyA4YTJONGBZQlY2YP5Sgf+UNybFuziwT0DiSXpBeUyKxxWhPDdZdtrYucdAaOLBYVCxWCGWb7qvZ26OpUmz7P3ydKWvOX78bWboSXTXDSX2XU7rLgwsEdugjXNMK39/0K55Vk4nDgG0cH2uZRYAEMxEL5w5Wgo3AAbKXIenlgq9QtHaipMcrzE8xYvhKEpd/aWgCxtlcrAkc+hzUC4nnK8BgRz2QOGfdVnWuvrQ3XjtOX9P1Ow6eOMfhOypA5rkEh+whD3MO2qsTQi0xLrENxV4yl6zvVVqm3VAbP2EbHK9Hh8RvZ5nGB2KjEr52BKgn7ElUoLH3JLdcTwZIQRQ70DRsx3B4bIcm3hJ77wijXB+lJINjxCwn7eaWUOF7pqw214xJtmrZGcrgV2tRNOkxunKviGLaPDlD47fOuUag7pso3sVXG3skNCcV7Ua/aShuMgYLldp8ibywHl3rk0DHdeeej8HRUKleSFW77yoZe+xSVaFc1VQlxjo3DiWh9yYGNuDGV76p7GZZkKgbWcU6osjEcGWMePsGOmU0QEKUrM3fSasMhPTkd88WxBfq4cWMjauPiOE65HhnHwuOnGngaI8hKDxjT7SwEu3jfQ315LbKWWQqBxYRJ2JZf9nDKdugW69NccQ4HA3sGP7gtHXxTDiBbOTaFI6+smre4sZGE6/MmCo4jmlf4VQh5PB4ZxlKKm9GHHrH97DMmNqhJsH0+GyHcLABmmAA4UgTaJEfa+tSV7LNy802ZkpUPSaieklWgbESXOcQZHLJTtYccZW2EKm8TcwAHCyTKSRtVumeJSg8VH0kVax7qokN+LQk0Pkv+Gu8+IEvnVplroF26FnMCngMCbdqIby769HA8g8pxX5iO/5J1zOeEikXpbqZX0S5QA9ta0wozpnzm7n4hkLEh+dr1FaoFKdbuAAAjRUlEQVSqy1IJjjHoJIZ1vJZcfs2HB8dcNX7Z1Ljwf8hGgDHicRK/Ex2UkM8dtHxDXK01x6clDdIpedwuSmSp2h86Ip1hCXPlw6nJSEKzbwvo7oLwXuGfr5IE1F6ot5DxFlvGxIUQOSpFcslv/i1aBEfyFp3huD9moJChz8SYKFC7RhxgJJDH9ti/ljS2YgI7oSFGGsEQ5old0eyCsSSPcexaTIcpUyKZnaIrjp90y4/zSIliYR0WM4X01QmpzShynMans8Vb6lUJntu6+XMeF5tPVmvvjy/KKLkmIHJ7gB+qUz7aomLIHifYWedNMZY+ik1GF3byPd6RsBUVwz+yqQ+Mn4yNaBFxbmkTAwdj507/j1RHv1sWR8KhYUo56lzh28amFhvLit3Lf7U/JNClfbf1czgjOzB200pto3L8h0aiAGvRyh+JJdioxTb2fU0kD4Ch0k+ZsyDQXPsqWMvhEPQyMY19pS6ciheLcSBHBK0ci9aLtAHAmELl1xhYHMkbZrCq6DxxaXTSFtWmzxBZWsQrrgRBDHuCYYTuTBZ0M5bIJm/fzMDPkVU9/b00VmGppsGjSQvgHPowKmI/PdGPDNJlqmztqZMdccAPkHyg4JJF13yfuNhfx03je9yg6vNBetjIL7kRjtzAOS/sK4LSrOm0TZS6YXVwDIz25liqcdRWhx2nVlyNAcTgGOLwfVCUjeCg7HXihEuV6LiOM6ITZP0uv6dgcstjKH4FLTcugrr8FZDDBnniAERD6TJYEFSxdiDGwgOy1ys7A6hq9Fae4I1tzI2fR5BK2HzZSCluhE0sRXiyOLG7jT1uLdZdokvAhfFZ8LTDGxcp9qf9Gmz1gwqeu5yPOyNv/xa4EHC5TjhYE7HpOG2E0uAtbONS6OZTHOW8Lrfp2LvKIkaAgNBhBsPUliUcYmDtn0WzcPGBObBhNdkOlbZHRQI2xuEo7bp7mSBu9RabR9nq16SyrnMWezeSlXW4jXdD+LUSNjszMkLZji4ecr2g9B3axInJQ3EY2Uof7aWETHK8Owa36Hv8BLJsID8DNC0K8nXfQAX5QE/ZhByGG5Qedz+jv6EQD/1WhoLbSDsBkJ/xg0r1KKMjCYTclnwzTWjohIUciZh1cqUO3+PXmWtDBWFwUxr8LX6K43osD07QnAXpsI57pFKaO/buj7ZPViss+RQ5BhGMPW2iIYM1ALVxyMuGFNA59FpTtE2U/V1xBMk6z1hOMogtt6REXHffYduQBKMv8Rl7k1ndvWSwKtQ/aXmTFFxixY/BDK4ifszYAcK+D0xtekzjvQm2NtqHP4uwFfC150bcW0663UdNmG6QPRCC8hbBE6+x2+BNN3uIh78HsmGsv2sG3FI6oLfHpOOZPDwfNyuHuN0+6V/JqkrMY8tHlZX7F3wLHNiuIhec6oIQ6S3+7pArfSNJshPWsOmHona+tgVjxDx1f8uz7wrL8sbzDRTiyCsWSvUrfVzk0qknua0qelwZD542LTYOAzkdpt54EFdsgc/mh1e/PUaao4UON0EojL4tc7A+1l0Y4SWmIR2F+CV5EkbtC7khVBtgTJgcP0ZycG0lurZHMRjGwwthD1JII30Qhyy/2pwgLA8mZvQjNDAFopQ+gCaqaYcO1WXX0ttBzEDk6AoAfFCCfFI+KtE46gj371ew0NZaQnhec6TiORSZJsj1uJGElziIuzqJ9glLdbvpq4dB4yZFT9AuLMw2wuN5+t00oFEBjBKVlOR/ohwK7Sk7nNKdJxgVsLBJgzcd52ac2mfl2h1h+xIox5C2j/FIFDRkIA6KAXWIQ+s4mGlnZNAJP/XyiJFvhOq60fPfMVdcfZ2QePsqmnMcHxetBla8F+c+BYEUZ8+r0YbC4zPJRbXRJnVIyApQKeUi1fe9HywxeJPtyKf4JpSMwToTXCuYJAT/xhJ4je2A3p5Jt/sL5PePKttIlzqy+ulmyPbseGzbAcm0ra5jFf/cv5OjI9otX58tRqwob6jQnuQTkrKtJh8wG0XUJyIOoU8e+TbMJCZ4RKfByPoz6vgQqM22eKmZA6gIw0d/uKY/4FBp8ttSLdzFv9ZhkuuFBR76xXC7xs3X4+O1jeAWSJ61EWPrjF3rm5Dk0qPH8DBaIcHhZNcPEmjy2Vqy2nQ6CSx9YHMW2rqwDuj4YbotGFgHWYsRFVchTGKK9SEvLNUhhRvRdZzxsGSnHpwoWg8CyYIsJPjVD5MfFT4dWxbkECX+/8NiISay/+4gWjlKAJTgkKNbbOpKtM9tJDehJkbaUggaax9fi4MRFkk4ZIPYoIXU64NkzE49tgbBOiqfiFtdGPF85I284S4YSY2sSfiz0vZtTqKZA5/A+Td56MBQSiuAoMaUcvZROlLG7YceeUQxsLZoSirioXGEBSdcM9CS6ZQrPwasZ1t2DEklu3fYC8mcQz0Ouk6fVge7rtsfs82jFIQ5nuJfffkNO84vDXRJUYlsKMVsLfl+0yfdYq9AsAARcinVjR59+tURtR866DfPHzvSQhvp6b9Vc8EQilFjO11v3uqPWc/bQBxdTXdPyD9cYGzb45EprxY7Towb62NnSQRX+oyR81ymtrETmnngVf8NCq2VVcnmenXUEWWzsmPUR6x1LFDu02W8HwfcDoedA1gITsFzCuf2fMzSAVs8ASbPh8CFO9ngVIO8nNhojXwbuiqPI6Pi6q5uRRyNXPvCfnOQwjEuayWywJBCHd6eVdzer4odVlOTaPOAGJXY2y4uMb4iiJTJquIPbbTmyBpMDKopt4B8NrowwaaNJBCNs2E0PsVZ8wq6xAL71h6UBCdElO0v+EjxkZdRkK4Ky6BBxpNIpmG0IdjuC/CAI04uBzsSGSdQmlZfmYC9+GA/JEjVLlbBeaLrc4E6auQxRSmpUHtd5Y5b61jGpdU2xKsaX3VsUIwVKsWWyIlDKUFEQnS3SRSdR6U7NmGnyZQxw4/OLc5VPxEKsCXBgb/SxjNtWLUxgNG4GcQFsxfsKoSCNK/QqU5Fn9Jkw0WBkNsdAF2IcxzDbR4KCtFRffeV8bc0xhwkpVd9x2gqIUkUFBI4KVvM6OHceYwDZnts0Q4p29+BdYZ/LuzE8bL2l4zcWGs6yYsOK0/7xk1lj8rSyUU62ot6MR0D6rYb4wsfH3yiKsNVn7CiOYnpX+gUlK8GuVkHHd7ugcyA2IFaX4JrWBVzWps2DcedpKNUyjmfwSLigyQP/lE6Y+01O25CSyctKmacqDvAHeWihc3kGEqOC3Y6mLotKC5ItMPp10FwyXrS8antirWqLbrq+j2soJ1+MW0OB6qQ9pNmlW3BuiDUSpEZT6bTj5QPAVVkD3p+VZuxY7GTIBBK27gJwcdMhJoHVWsZW1pOmN+JmYHe9ricE0C02OJoiUMIMRHF0VrcRQgLh/JmU23xD0CUXT/KKk2KpQOnZNEXduwZClRYVsPCxE2yOS2pCyPueGIwIrQWkKXcg+oGBRjyZheZ4JqVA/JKXQhECwIRmzhbQpzxA15T5d0XCPiDC3BUJ1Yq0jrHjTIsHVgwHl+Ugq4Y2OX1RueUgdEF7qGhqQpuXQDK7QposKHZXnNLhQZJibhCXeMKommRzTFEQ7tdG9XFo24wQ4RWdlpFLO0RgEkSqDY8JxkqrSTnxGIIjJEkR3TKygYv/UAYkWv8VAZDMlA7Bh5STPfUmFoPOX1szUqpZFaol4OPHSSxYQXp4g8LU9o0H5cxaHX6f28NDCUUyXycA/oqDvTkmVVs1/JIxLt9/KDIFwlopEVPZZC+QOb247fKW6q/HRvdCG0i4+D0gWxQoj17e61veOLCJugL2QjpAu9mTlujfUK3Txr16ishcw1WnjGLs7vd6MFzWm2BsCpmQekns8ZEb8Tou97ZtcIckLKk+OSdmypjLsp2kEjX8gHskvXrKLbSX+tklB4tQ9uhKeTAGHgkatviOaRxU7aVARlEqyTkr+r+S/zIcfydSuIcWsbClKcRejvTth5yoc7Fd3Qbo+WjCo4JonPyjfmIOHaOsMdJTiJiwxdgSAn+jaRI1flVuCEkgnCtDg4KytlYoFPY4lS99K0e70KATTNygDbjcWxRSxzgHGAutS3LpiQ4J1VP37uoQwTIWJAbU5bAKE5owXcIcQVufsdHE28epFCcMle98RyZeFKpm7n1RHZMbrJvUq4BZa8ksNb5A3H6bOenrGNjVAv1u/WiIirgfk9GbjpA9O+STkFEJfwA7vDM5DsPHR85X8AIeNa9K0JL/zT+FvW6MHr0gz7Z5IZmL3V41IU2VG7bYclEAEWBKoiOo4o23BFie9JQdJBDZ21cVDEWnaMRyGKFiNzQxznLxo4hORgsNVxolZzU3CUzx9cMywjdcbzRz7fIHfgw8eD+yS5sItU/aZa4yb2+YiNRLdp8E9Q2a3gcc1+MmjXKJ5LuZDGHMaNgi3GEGURMSBavzsTm1f+nsnNRcGy3lavtm/z/D+fYqVUPklL3nDgciQSBQgEgqa1Xd4/fUMPFGRDV3VQRy8f0DiD/8OXJkqR2mRN/nIuGaDZwpn/yGnNtoe1EA+4ZnokrkCN1PHe8Tk1M0t6zYjP1uUjsqQvp/I4OnDGRuvPfufeDu0nlcQDwq5m/Lyy/82l90N5WpXitr5Fhj8Wb7z/0wk0voswrRPnnZyaHliSl9e1vPCSM7FW08GeXpJcu8brOVnRNBE/IO+ew2N/7nojLKy9YFMrXDsZcPzL2SbjpZKi/J+QojAK2TI346I2Qc1qeKYI+ez2OXaswcIve/Q6FnQgW32dqn3axq0+kaRfHZisXYw6Zf67VtSHB4dUbabM06siLa60mSz+ot5ex+7EnDBbP/1hEE6nTGUHkzl74k29Fs9l0V2J6XB14Nqp7ajPu2ny+pGPv9/yx/YfzLcJ6dK+7p1kfTLTtnUdhedPOayfcTvbKkTQ5jn4pofOiZ6868+3DdsUAY1MJ+MWI5HIdVdjcikiiS9eroImZQwuB1k1K3zizVliX6xZv6OXDt0U8Pmj2peNuD0iwaLZrq6wpTtonmFEfntUwlK9DconaOTrWJ1euMVwXom82Scc58YLkCQEHc+5yYU9pXGNSQs9KYViBplWyi7rWbBsmqczTvbO+/K/8ctrcWMa0jvc5C71DBuB+18RjI7YnCEisSZrfUvN4w1Qdw/f8MfkjJT9umts/980lDF4G1mmJW2E118E93ogVyxv1jVK9h8jbA1CWVWh+DDCv6+wd0pcoMnrTSMitJBrYE9s1SkCk49zsQ7WqGEIzhTjvetvz1pW04yOZ3/k71w8K0H1nN+vF6nAx2P4k/vjvYxFI/ZeHozht+0+dNwoxPukU/XN4ManmJ8YaGd/ja52c7V/H2dGRbow3QtZ86uiv1Ywf3bHxbpIGqUXWNaofvfSY2Mv/33Y52SfWtoV1gNK8jy1xBqgP9quKbMIovdsS9Y1QUhyWi+RJ+ypTDnMb6XTPLQTV450iMObTLV/UJO8JK0dNZEroUkKwWXOQCg2NcbJDWXslTw8isz/1xG8EQRYT9OR3/BPLL3rVuBzNpcmqGuMvXn9WXTJhdhQuU94EXZDXXVMupCTCQJ2bW4HBJyNWeyOeVuca7sUJBb5w2njmKLmI6NKYEOYKKUjnMJ8lY3Mw24tHZQbIgjhTsxBpeq+KcwIzbcSdN+trei9iyP7/QsRnfcKkB+8yxwlGqnQ27WLC1Zg3QkOaYOfdY17MuU426XCDdBCILTHzi/djqp35aR8E1kJ7kdgJo38SnWdfKxnjIAJoL+KjPjeP8Q6fn/hnM+s6UHskJ8jyjj/M3NUC9dRVVo0pVQPgSQie5H1HanjvvJm5czgI40+9HWicGOB9Bvvpqzu37GcnGpLJUraeF+HFNjHNSb68SIifYQ7FQRkkGGcH+aFQJY6wIbboAkPueZdY9Alqizc4ttnx5U7bmFn6cH9qjCNHefjbkP1IgVR5fCDYKgyZgyMpXtLh93ubhTTJ19eUKeXi5fE8nBTJm493n+8fCJiDRnzAdn01cx5eU3OgcJaYHMhY/Hj9pvE/eiPh6wBEQE7HRDOe+L0mmScUNdxYnBJvLY+xEngwF9jNCMhKsW6VO+aaJqzyvXgI0ra+YdLq/EvnWBO/USz/CeMkyClePR5ZG/bLDeeKpDJZKlKiOgCs3lr00pb3PRPBzyseeDqDUGlWNvxNG0PW8kmAxGxfZBNJt1V49Ji+sSb8UooyEZ44wnl2F66Y8h+fN97jD/oubgKc8/bi8Gdf3UvevoBRnjo3fhxL3HrHgkP24KwjVGsq3G8mDdb180eDbesA6DbPVv/ULCQG6z/xg4ROOG5nPxYj7mCv5mtyfMpIzK9G5K6QLclEvW5GPy4TgwkRvrtyR4MV/94Vk29382ZdpubgDzMhFO6uW3OR3jpGaviRNzHi1WhnTuzfHtMC/Gj40jZm9tX/ZuxCdDjH0p7Dz4hSOpZjD/xdF/d8b791YCdrtOyOi+g1jOPVsUw70xf5NxJ8J08J74UJN8cDIIECCJBbHGsCevWBHR143RcKGv+xBBS0PKla8Byoi5iHXWeSUjfipnWzraZjHoYcAk3ULp6ZAQg5WPgcRPDn48dyGWsPvMum4ZO3gL8dXo/f5Ff3t0Q2gv6TxyrBPvnvGA8G4ZBqbSrvAUn9UYU5fdb8gB2ojo3+gYPB655Y+RRmKwtSd4ZGYtzhXnSsM3NueVnE3ieTVWMSlLJJVzVyoPQ5M8eoOV5Y5u0XL573wl+DczIFHHBqkpt9zaNuP+4iipy5juNH72gPr1UOTO25W+fMgCdvXL5/rIV56qUWZ1V6zciH7OAM4enfmo9y8VCwhm/bOr66yoM6v/04A7bWkic0rM3C+oSQeBvywg76qmxrXSpuewWtz6rs+cYP4CVK9Zln37KeYLyX1OZPvpnnBbKTOoXlk7w9sU1NfR/rRHyMBfC6de19Yst6OLrNisqkq+PZVkr2Lorsa37Dw+QkEn+rCh/2YhpvPB23/lPPzzTi97pO2RHb2/ClJnO0Gx9rbzsOBGvAcyY0j4rx2kOW6vO1ilhG2uDjzahMC4Emb4bYz/HPOeP+MIFXpZ/mmtY1J272ssFI7dmViUdHHYJm9yQwWeW/rKNLBeF07hN+slPvm78rCmfnzglqWnPNhPmk7Btv3snj5hiM194/erc46Fmr3fsmUWqXsT6TaM0rkUbc15bknfeNfSRht1a4naSth86vTcyXIIcaozxYu7WIXAuoJW+Yc46K8EXiiSG17Ziz+Df1j0Kyk0/WJdwAJzHJ4EnIZvTQg7F4EGi+0cMsH+ZryUKzUOWM/5EgXphvHPZUCi0ajwWvU2DWm0p29NRaaBGZM/ktJPqb3/YUhqb71G8lLN5cAGMMPvav3ueE5+HL2QwNDAOcmo5uFI3N1Ca4JOR54mSderNATenJJw6l/vQJmbD46sbz/tY2jy/F04eXiU/sfJgJGc8xXi3JO4sefVbtEj8SP+lQ+c3B/jKvJvI40EvR3EMDHff/tp3nmTq8vq/8JJkAvyaCBwul+/a+Kmf++li/esAvwhFOCb6+t3IoltcrA97cS8yE5jjqnFNUNml/3LS4QM5eRdu+JN4A5co5gEr/fMYsK25h+UZIgToP8GRDGDU/OIRgM8MXPXPMuiP5Qo3GN7rY7YSH6ZQIJHphcxrJ0pp0Jx7MIPh/0+6PLTiFX12S66+mX5XN7Ffbt5I0/4RfCYu/EY4/+fzR4v3YQw2GsO/8fvvlIgruq8mtnjEwUTKH2fuS7NzbBjQ6S3DsfKBQmzXc0S2SzwYvbBrZZ8RAab5G8oDLfO0yRHv1jSHFzuB+J80MqsOfYmrMRXAXQPySJb35iOm6y2mtrA1mW4B9fJ5KnL/j90U7T/yrCRcegJxx/4t4ohJt59cyeXlDkx86GM7sCKsgiPVN0dNX5gWmkzproWz6i9e8keDf2scyVLkzBupJwZy5wLiP1deROWq0EzXg+eF9bVwzeh/k7KnXU35Z1BJD1XWB8qQv4SsEDsd1PigFzAvy1F+2ul8S+5bfVdqk7kLMdoNAfY3U8SSYuPGwDM8Qx0uCL93ajNlwyZp8sqFPekIanFlTxvyRj6cy2s5m987ce28DKK1LFVGxQqwVQYqFRbdo0ArRNJjZ+Fing2M+Wao4+RugY6m/CO/5BEc2Gh068XNp1ON76668/Zg3hV7s/IP/KHUx4VMDw9iG7A9MPBd2CQ6AXXfULAu/s8N+nFqMT4yXN/mGxBFrzJt7UuYnKPIiTJQO4H3uuU8ezZ2y5e9f7O4LuierZgcn8dRxAy+FVaifqp0KhGjBIcjBS1yPWv3Z5A/fcQUkDgkE2twp8L0XOvYEfmQMxDHAU0A5b4BpJUGSiJu7CtlFT7AY5HNg+dHbqE6qrQLrS3tRP/iMaGfg9dk3D8vQ62VzNIhI5LM9X0wzVu98AO5lUQlN5ey0RuSqBeigpDUPQOsXh63bYjkG8fEjA7vQ7RyNo0QlDA82/Gg/V8URGxeM5yxAUrHXzeekmjpsfTrxzM1cK5I8Vxs6oZLP4+vc8H4sxhZTU2gUh1j6Ki0/zp640el88hXb8zuP8zGTbcRYHGF70AjBWq0hMR2SfcurjiEyzn49oczeTPdikM3dcWwvZjqPzoGuiAHxf9TjnM9JXAafGQDfrXm6yof3qdoeNtX/hb0yQOY5nwjalykwqlGCP3qqo3cuG2R7dpLzwvQm/C/+H6HW728CdW39l/+40sXk/xFywKZPsJNNDr+jKIXG11SyJ4A9s20XdOPPIt2U8FnoPd7BsvFuMs7OvNrYfunBfmOyGJfn63EpDxDfXr+QT7XUFOy/8fozJpV5kwR6j7p9bF72BP9miv8sqyJaKjKpsx4SBsuYngNj0Oi/9slqOfkQ2n8R8Fp+G8cPhiDcmgtwWk6l9STDgdyhzPicpXgkZx4IkRqk0a0HKKtTSzx+VMR8nCUXEfwueryw8TcGxz8cD7mjG0/clmSl58RDia01dO32bQUPilMfeYzHZKE0BzRuR9BMvpriZq3LkE6WoTZOZysTtwlBddllmRegYezgqTn8oQQ/8y2sb6n1P3/91ZqTR71Ofh98OzCN4qhvaNbMBPSSPUwzHfp+2m1TcFnT6OO4TDSSs7B5TFf2Pg3zJKEcPNPi+I3xWY+LIUu+FSV8qK8tzuO91Tuc88VJd8meusgHn+BXgVSM49USKk5/8rD6wdmtgcg3+DprcBg63S1LHGojFtvEm7WoP3FUkDk5RCMw3byrt52zEl98Dtw842SslXjDAfYiS8cTAnuvIU1G+I9GGOb2F8okxJaOm22CZxreMTlPJns+k1/90crFfR7fiOVVLHR7YULsYU1pu53tj4R9FQaLNunWuQpq0DqL4+rhl5duu474Ax0wXQfyudcxXsyRayjdn1ohcQipCxCPK/AIJbzAAPauudFeg3mi+YqD40fD/1GUmxpPfqJpJg8W+607HEHlOau8Hv75j/85MSL4VxbgtUvZFXuvL7LPyctWu2WHlu+hFKwMlWJZKSfpx0HZC1vFKTQqbOajO4Jkpp5bmrfPmY0CPyHMsrlfK8n55lRqKdh6O5o8Hs3A5ynG6TX6xjy6M/qNtcis1t4Yd6xLMWNdn3JOcamxFuGoCnges8cjPOgnuZbMpjuPk8ZLNrLq5jON77ExwZOgGT34UKADKC+Z/uJDQOqV7P3yGNcPOqnw+akLP9bUaxjThLF0MvTs77q9FoZ17U9yk27dPzOz/1GX5ZDJYBsK6tpc02GwWw7m8gltuAmsfn0erWyZvb/vFYdQf2KD3jpi81bVIfq+nVRKmSMA1F0O5zFgmQ5n7Sx2mkbnTmdjavEbIWPsAPIIEc3gZcKo9iyCoLbYRZI/6T85LTf5NMv6M5zE8F2Stt/pq36yKuprEJiD/B65XU52MbAHOZ/gXxxv7TX9iDvFm9wpYMZv3oI97HIQzE3lxWBbAI3Q1vdaYj8mAxL/zSLyxwqIoggPd8WQzIpewuuVFwmJmZ5M0pjncMEsZ27mzmj7R0z0ADhLATKctZAQuZE0RLrz0oejPLyIXhi/gIFEdz754ZOA1OCoTnzzG9hqUziS/bMOxjJXYL9I4Vsf/8gOY1+kOw9SutnBc7hCb44oL+7kDUb+WGbdaBOdWhCRfaIKyu+NQeGoxiUH1lp41XB+JKA+dw9uJOr1N0ReAxh0OpAjtShPk2hMzVmxNI8XDvA6+HGIipzykuWcB68p1SUX6yVmHp2ZG48z2lKzpOqtcx+/Qm8Gzc37Pkpn+EyacRKG8TbkIRmdmzlLbACWB8m6SwUWLc1rEDHzR46YSiZvTU7w4fvETjxzd58WB9jOyGJ6HnDzcXICymKQjEl4UWyDKXeGnolf4nVVHBcCVy1eVmWr8OaHZWENkSc5Eis+uBUjHQ3EpArWI89CLGY0L9PYmvOweXwbZTge7/NEGLCviRcO6BEZkNWc+SZRubd5caXZapyU8GygE0+K6HL9Is/coUS+58lBjqPNxlqvbo9zz1lLBI+SuL05E8dAda883TOaCTLlYk5snpPh02rM2Xv4H1R+uuD1gSGOSe+zXltsEK7BpmNcfLOE5iUftXXG4HN45h3HRP6MH8RwrOGt62qh1wxFcyDlXU+xorcJjO5ZSSafjeg+xzUNYV84MIrcH24g1v15FJ00ztlZwcaK319HQpNvKOEz0SULK8HRPf7Lx0EwFZL5XRupm9xIrUm380ZYEezNH7E2/9yFcI0p42bkoOr1h3L+8xcSz2v6XlgyHyL8+/9I1pzGmmdteWPklY7WVOoYDbBa3dqq7vk/Rd8cyOK2q3+11/7/lvA7/2OEJl5Z9gm9+6+ugRiCqjTFTWmAh0BG7MK2wrBUB4XLMwzlZ7N9BDXFx1k3Xvzouee83lN78BjZLhTUG3I77WM0m9Qds8+TYh0sJIkDiH/+q3GxH5T32i8uprpVlkBEEDDwT8KBLkDH6YcAT+sS3EKsFZ8cgpBiwkiKYeDB8bnhgHqA52fcnB/lyfbVwfo06mNKR04HCp8mSnTM58EBnoZZg+3u4pwXp8iZGypxG7QRfRrOupujGsvPps5Ogpf28b/8VXq/AF/aSPRXt8mrIdmGcSz2Hjsjx3A5MCeaNQhYskzWW/WzM+hVF2x94pCAudXl4CfWeRPkQ08w1ujeXVhLYefyJHQULSqxl+L9+/PV8+aHOv0mKG+Azo+aNe1bcRUafEnNgrzKI9/KbhrfSwHvB4WcqINbdrJvKMQKnxvmFYPChmM9e8K5S96zJdY//9f/ls/W8H0hhlrYPoEkWAKdfufCxibxFJAXXcRZgo25POu/GhNj+Wk2Ue4TnatMqeWu5QD+VCrPeaGjP86Id5K0ltuFI10tHuRdT7vTaUdYnwd76pDz8gukl/ytw1J4cCfiDWxuJy/8eKp0FUAXx3rx270cLO/9lK41LHYcfN5uHTiqCg8+0QusQCW1f0mUFNdoWxxLMHTOCxdiEkgdN8vMHUWq+II3Y4p0rWBXc2zxoneT0vpNTtTEPyAJ5im3verrdN6kcDq48RMliZPtZUd3MwgGYnTXR5M0xcEjPQj9E3Zrb03nYwWb9OAdEWOzsA6Ox7Z6PtLjf0VLSyWSwTUnLC8Fc+d5wImY3B+kRM88+lGCq9vOwebvSPZQ3+sCBGaqBbTmrcU4zM6HvCPGH2V84yV5WI/ML+ZHDXGiv7A8cKxbB8ParVQSMWgC/Js4R1G1akhpAwZLHskqzHlzw8okX2tjkkN8zxROdOyfTbV8HAQj5KprOqnIlvNGqtLwDYncWMP/6NW2/yohX72phhvHbnpz8XV6XgDldH7PMkpu6gjuJAMq1LnI8ntzXc0fWSjvtQTPFvDL2x/q6Q0efzX1L/2kw7+5Sw4TzjApIW7LS6Ov7cw/WrHWIaed5wFN84b+h2ORj97ul8PB/1BDnQ8HLPNk9BrLlx159Tg8ES3H/jAcQIURPFzhiZ1tyyMVrZrwczlU6DlbjPSPAS37ZZUXvEblT/mXv/7GhMZEWyPwjWGGJnF5QUOYaG8oJ4xC5v8LQKtvnfme2jkAAAAASUVORK5CYII=;" vertex="1" parent="1">
          <mxGeometry x="-3" y="470" width="834" height="62" as="geometry" />
        </mxCell>
        <mxCell id="U9esFjEPz3OBlnraez3o-16" value="" style="group;shadow=1;" vertex="1" connectable="0" parent="1">
          <mxGeometry x="20" y="420" width="230" height="60" as="geometry" />
        </mxCell>
        <mxCell id="U9esFjEPz3OBlnraez3o-4" value="" style="edgeStyle=segmentEdgeStyle;endArrow=classic;html=1;startSize=14;endSize=4;sourcePerimeterSpacing=8;targetPerimeterSpacing=5;strokeWidth=4;strokeColor=#999999;exitX=0;exitY=0.5;exitDx=0;exitDy=0;labelBorderColor=none;shadow=1;sketch=0;" edge="1" parent="U9esFjEPz3OBlnraez3o-16" source="U9esFjEPz3OBlnraez3o-5">
          <mxGeometry width="50" height="50" as="geometry">
            <mxPoint x="50" y="10" as="sourcePoint" />
            <mxPoint y="60" as="targetPoint" />
          </mxGeometry>
        </mxCell>
        <mxCell id="U9esFjEPz3OBlnraez3o-5" value="Dockerized-Snow logo" style="text;html=1;strokeColor=none;fillColor=none;align=left;verticalAlign=middle;whiteSpace=wrap;rounded=0;hachureGap=4;pointerEvents=0;fontSize=17;spacing=4;fontColor=#999999;" vertex="1" parent="U9esFjEPz3OBlnraez3o-16">
          <mxGeometry x="20" width="210" height="20" as="geometry" />
        </mxCell>
        <mxCell id="U9esFjEPz3OBlnraez3o-17" value="" style="group;shadow=1;" vertex="1" connectable="0" parent="1">
          <mxGeometry x="90" y="520" width="230" height="59" as="geometry" />
        </mxCell>
        <mxCell id="U9esFjEPz3OBlnraez3o-12" value="" style="edgeStyle=segmentEdgeStyle;endArrow=classic;html=1;startSize=14;endSize=4;sourcePerimeterSpacing=8;targetPerimeterSpacing=5;strokeWidth=4;strokeColor=#999999;exitX=0;exitY=0.5;exitDx=0;exitDy=0;shadow=1;" edge="1" parent="U9esFjEPz3OBlnraez3o-17" source="U9esFjEPz3OBlnraez3o-13">
          <mxGeometry y="-4" width="50" height="50" as="geometry">
            <mxPoint x="50" y="6" as="sourcePoint" />
            <mxPoint as="targetPoint" />
          </mxGeometry>
        </mxCell>
        <mxCell id="U9esFjEPz3OBlnraez3o-13" value="Container name" style="text;html=1;strokeColor=none;fillColor=none;align=left;verticalAlign=middle;whiteSpace=wrap;rounded=0;hachureGap=4;pointerEvents=0;fontSize=17;spacing=4;fontColor=#999999;" vertex="1" parent="U9esFjEPz3OBlnraez3o-17">
          <mxGeometry x="20" y="39" width="210" height="20" as="geometry" />
        </mxCell>
        <mxCell id="U9esFjEPz3OBlnraez3o-18" value="" style="group;shadow=1;" vertex="1" connectable="0" parent="1">
          <mxGeometry x="240" y="420" width="230" height="60" as="geometry" />
        </mxCell>
        <mxCell id="U9esFjEPz3OBlnraez3o-19" value="" style="edgeStyle=segmentEdgeStyle;endArrow=classic;html=1;startSize=14;endSize=4;sourcePerimeterSpacing=8;targetPerimeterSpacing=5;strokeWidth=4;strokeColor=#999999;exitX=0;exitY=0.5;exitDx=0;exitDy=0;labelBorderColor=none;shadow=1;sketch=0;" edge="1" parent="U9esFjEPz3OBlnraez3o-18" source="U9esFjEPz3OBlnraez3o-20">
          <mxGeometry width="50" height="50" as="geometry">
            <mxPoint x="50" y="10" as="sourcePoint" />
            <mxPoint y="60" as="targetPoint" />
          </mxGeometry>
        </mxCell>
        <mxCell id="U9esFjEPz3OBlnraez3o-20" value="Host computer" style="text;html=1;strokeColor=none;fillColor=none;align=left;verticalAlign=middle;whiteSpace=wrap;rounded=0;hachureGap=4;pointerEvents=0;fontSize=17;spacing=4;fontColor=#999999;" vertex="1" parent="U9esFjEPz3OBlnraez3o-18">
          <mxGeometry x="20" width="210" height="20" as="geometry" />
        </mxCell>
        <mxCell id="U9esFjEPz3OBlnraez3o-21" value="" style="group;shadow=1;" vertex="1" connectable="0" parent="1">
          <mxGeometry x="380" y="520" width="230" height="59" as="geometry" />
        </mxCell>
        <mxCell id="U9esFjEPz3OBlnraez3o-22" value="" style="edgeStyle=segmentEdgeStyle;endArrow=classic;html=1;startSize=14;endSize=4;sourcePerimeterSpacing=8;targetPerimeterSpacing=5;strokeWidth=4;strokeColor=#999999;exitX=0;exitY=0.5;exitDx=0;exitDy=0;shadow=1;" edge="1" parent="U9esFjEPz3OBlnraez3o-21" source="U9esFjEPz3OBlnraez3o-23">
          <mxGeometry y="-4" width="50" height="50" as="geometry">
            <mxPoint x="50" y="6" as="sourcePoint" />
            <mxPoint as="targetPoint" />
          </mxGeometry>
        </mxCell>
        <mxCell id="U9esFjEPz3OBlnraez3o-23" value="Host architecture" style="text;html=1;strokeColor=none;fillColor=none;align=left;verticalAlign=middle;whiteSpace=wrap;rounded=0;hachureGap=4;pointerEvents=0;fontSize=17;spacing=4;fontColor=#999999;" vertex="1" parent="U9esFjEPz3OBlnraez3o-21">
          <mxGeometry x="20" y="39" width="210" height="20" as="geometry" />
        </mxCell>
        <mxCell id="U9esFjEPz3OBlnraez3o-24" value="" style="group;shadow=1;" vertex="1" connectable="0" parent="1">
          <mxGeometry x="650" y="420" width="170" height="60" as="geometry" />
        </mxCell>
        <mxCell id="U9esFjEPz3OBlnraez3o-25" value="" style="edgeStyle=segmentEdgeStyle;endArrow=classic;html=1;startSize=14;endSize=4;sourcePerimeterSpacing=8;targetPerimeterSpacing=5;strokeWidth=4;strokeColor=#999999;exitX=0;exitY=0.5;exitDx=0;exitDy=0;labelBorderColor=none;shadow=1;sketch=0;" edge="1" parent="U9esFjEPz3OBlnraez3o-24" source="U9esFjEPz3OBlnraez3o-26">
          <mxGeometry width="36.95652173913043" height="50" as="geometry">
            <mxPoint x="36.95652173913043" y="10" as="sourcePoint" />
            <mxPoint y="60" as="targetPoint" />
          </mxGeometry>
        </mxCell>
        <mxCell id="U9esFjEPz3OBlnraez3o-26" value="Current directory" style="text;html=1;strokeColor=none;fillColor=none;align=left;verticalAlign=middle;whiteSpace=wrap;rounded=0;hachureGap=4;pointerEvents=0;fontSize=17;spacing=4;fontColor=#999999;" vertex="1" parent="U9esFjEPz3OBlnraez3o-24">
          <mxGeometry x="14.78" width="155.22" height="20" as="geometry" />
        </mxCell>
      </root>
    </mxGraphModel>
  </diagram>
</mxfile>
